<svg width="121" height="42" viewBox="0 0 121 42" fill="none" xmlns="http://www.w3.org/2000/svg">
<path d="M0.000738903 16.1696C-0.0052581 15.7858 0.0271681 15.2441 0.0288762 14.7914C0.0363746 12.8949 0.0588525 12.1922 0.0716009 10.4763C0.0905369 7.93204 0.0479182 0.381042 0.273193 0.380859C0.273199 0.380859 0.273205 0.380859 0.27321 0.380859C0.275419 0.380861 0.277654 0.381584 0.279914 0.383054C0.322831 0.409521 0.369683 1.05176 0.41822 1.14708C0.466776 1.24224 0.780238 1.17088 0.79786 2.08307C0.821083 3.40568 0.740709 6.57842 0.744271 7.28384C0.746726 7.7661 0.775222 8.35982 0.780282 8.97649C0.796589 10.9648 0.775751 12.0051 0.853158 13.7965C0.812366 14.513 0.771574 15.2295 0.730782 15.9461C0.749696 16.8809 0.695898 18.2978 0.698861 18.8658C0.701298 19.3317 0.733555 19.6048 0.735055 20.0905C0.736918 20.6351 0.7021 21.4716 0.707345 22.4624C0.715781 24.0866 0.79993 24.3756 0.810616 25.3502C0.821675 26.3608 0.775939 27.9324 0.80555 29.2219C0.814807 29.3836 0.824064 29.5454 0.833321 29.7071C0.854257 29.5912 0.875192 29.4753 0.896127 29.3595C0.905872 30.009 0.862968 30.2883 0.862191 30.8851C0.861254 31.5873 0.901929 31.9455 0.901742 32.418C0.901553 32.8051 0.868937 33.3299 0.87098 33.8318C0.873792 34.5636 0.920885 34.4036 0.929696 34.7973C0.933119 34.9544 0.959107 37.8591 0.959481 38.0229C0.961338 39.2692 0.89688 39.3777 0.891244 40.3715C0.889372 40.7071 0.888501 41.0437 0.888449 41.3809L0.5 40.9924C2.93174 40.9928 5.38675 40.9505 7.6259 40.9332C8.76435 40.9244 9.9522 40.9282 11.0873 40.9385C9.2994 41.1034 13.2562 41.2318 11.7764 40.9737C13.0394 41.0104 13.9349 40.9407 15.1323 40.9525C15.9066 40.9602 16.4426 40.996 17.5484 40.995C19.5105 40.9932 21.6567 40.8914 22.221 41.0753C24.5242 41.0429 26.5192 41.1096 27.3493 40.9473C27.9432 40.9373 29.4653 41.034 30.1315 41.0472C30.7615 41.0595 35.5953 41.1032 36.3861 41.1056C37.1769 41.1081 38.5612 41.1107 39.2273 41.0965C40.064 41.0789 40.6487 40.9105 42.1384 41.1074C43.8705 41.0914 44.4876 41.0971 46.0986 41.1199C46.3902 41.1241 46.4232 41.1533 46.5936 41.1533C46.9446 41.1533 47.5418 41.1317 48.1683 41.1291C49.1986 41.1248 49.7866 41.1863 49.6718 41.0923C50.3511 41.0766 51.0304 41.0608 51.7096 41.0451C51.9479 41.0632 52.1862 41.0814 52.4245 41.0995C52.7877 41.0797 53.1509 41.06 53.514 41.0402C53.0875 41.1761 55.6436 41.0959 54.8136 41.0179C56.1304 41.0461 57.4472 41.0742 58.7639 41.1023C58.5802 41.2568 61.6551 41.1201 61.3963 41.0361C61.5469 41.0362 61.6976 41.0364 61.8483 41.0365C63.1674 41.0775 64.3787 41.044 65.9865 41.0715C67.5942 41.0991 67.4433 41.1141 67.9322 41.1852C68.3105 41.1811 68.6889 41.177 69.0672 41.173C71.0524 40.9782 70.7015 41.3154 74.1009 41.166C75.187 41.2884 77.8643 41.2241 79.6395 41.187C79.846 41.1827 79.8496 41.1589 80.1247 41.1516C80.7973 41.134 82.5135 41.1645 82.4548 41.0879C83.0489 41.1101 83.643 41.1322 84.2371 41.1544C84.7227 41.1405 85.2083 41.1265 85.6939 41.1126C85.6915 41.0887 85.689 41.0647 85.6866 41.0408C86.6644 41.1224 88.2009 41.091 88.9589 41.1105C89.1097 41.1145 89.1423 41.1475 89.6111 41.1565C90.1591 41.1672 91.1802 41.1574 91.8332 41.1677C92.087 41.1312 92.3409 41.0946 92.5947 41.058C93.7624 41.0382 94.1729 41.1347 94.8586 41.1422C94.982 41.1435 97.2344 41.1366 97.3558 41.1345C98.3493 41.1182 98.0678 41.036 100.941 41.0536C101.453 41.0568 101.867 41.0852 102.329 41.0864C103.146 41.0884 105.608 41.0239 105.802 40.9643C106.793 41.0389 109.444 41.0084 110.225 41.03C110.461 41.0366 110.514 41.0841 111.238 41.0942C111.826 41.1025 113.338 41.0644 114.083 41.0708C114.874 41.0777 115.156 41.1177 115.511 41.1205C115.845 41.1231 116.154 41.0909 116.61 41.0911C118.034 41.0922 119.323 41.1441 120.448 41.145C120.466 41.145 120.483 41.145 120.5 41.145L120.264 41.3809C120.264 39.7745 120.17 38.3528 120.128 37.0055C120.134 36.6675 120.155 36.3354 120.155 35.9811C120.158 31.5974 120.175 26.6524 120.196 22.2557C120.205 20.2145 120.335 15.1388 120.119 16.4935C120.081 15.7842 120.168 10.6266 120.169 9.64557C120.17 8.6648 120.132 7.88731 120.131 7.11643C120.129 4.8067 120.157 3.17536 120.124 0.380859L120.5 0.756554C120.48 0.75679 120.46 0.757029 120.439 0.757272C119.708 0.766094 118.924 0.812005 118.491 0.811471C117.969 0.810721 117.408 0.766318 116.732 0.763497C115.121 0.757124 112.119 0.771729 110.573 0.764047C110.291 0.762547 110.192 0.723559 109.788 0.711373C108.217 0.663759 106.455 0.667889 106.767 0.792367C104.752 0.721697 102.889 0.78616 101.022 0.790109C97.0743 0.79817 89.8838 0.769115 86.445 0.82142C84.2767 0.854416 84.3322 0.910245 81.1398 0.862069C80.4312 0.851385 79.7257 0.836974 78.8662 0.824227C76.8515 0.794233 75.0033 0.691095 73.4677 0.815377C71.2301 0.783144 69.448 0.806003 67.7878 0.699715C67.5921 0.725208 67.3964 0.7507 67.2007 0.776193C66.9264 0.776823 66.652 0.777454 66.3777 0.778085C66.2921 0.753772 66.2066 0.72946 66.121 0.705148C64.1558 0.698601 61.6625 0.798528 59.999 0.797799C57.2099 0.796674 50.0262 0.757853 47.3815 0.725045C45.9775 0.707623 45.9019 0.759695 45.098 0.652657C44.784 0.660104 44.47 0.66755 44.1559 0.674996C43.9594 0.698434 43.7628 0.721871 43.5663 0.745309C41.7649 0.746246 39.6284 0.709841 37.9123 0.710213C34.7852 0.710963 30.0896 0.775469 26.9494 0.733102C26.162 0.722418 25.1778 0.674084 24.4067 0.67463C23.2845 0.67538 23.0118 0.755589 21.5877 0.757089C19.1333 0.759526 14.5624 0.666346 12.2425 0.67347C11.5535 0.675534 11.232 0.705379 10.7563 0.708566C8.76123 0.722251 7.12331 0.719821 5.21032 0.765939C3.15627 0.689075 3.33372 0.589863 2.69715 0.489754C2.21472 0.414197 0.735446 0.239094 0.525455 0.17292C0.377948 0.126429 0.928689 0.0666235 0.721988 0.0154487C3.18292 -0.025419 4.21681 0.0195709 6.2151 0.0915597C9.90543 0.088691 13.5958 0.0858224 17.2861 0.0829537C17.6218 0.110888 17.9576 0.138821 18.2933 0.166755C18.2933 0.166816 18.2933 0.166877 18.2933 0.166938C19.7105 0.199176 20.3112 0.127237 21.0755 0.110908C28.3928 -0.0454435 42.7948 0.0769281 50.8503 0.0945504C52.5862 0.0982985 58.233 0.0606576 59.4241 0.106025C59.7325 0.11784 59.8183 0.160913 60.1464 0.162788C63.0776 0.137173 66.0088 0.111559 68.94 0.0859445C74.9677 0.152871 81.1993 0.0975982 87.2729 0.0872872C98.418 0.0683422 109.487 0.0466283 120.5 0.0378327L120.842 0.0367707L120.843 0.380859C120.847 5.60548 120.848 10.8173 120.845 16.0182C120.843 19.1419 120.875 23.1061 120.855 26.1642C120.846 27.4405 120.777 27.9723 120.828 29.649C120.81 29.6666 120.791 29.6842 120.772 29.7018C120.795 31.165 120.837 32.1001 120.842 33.7406C120.845 35.122 120.848 38.777 120.841 39.9977C120.837 40.6309 120.802 40.395 120.803 40.9853C120.803 41.1027 120.803 41.2355 120.805 41.3809L120.806 41.6845L120.5 41.6854C119.394 41.6946 117.564 41.7322 116.331 41.7322C115.068 41.7322 112.938 41.6921 111.967 41.6979C108.469 41.7185 104.659 41.778 100.931 41.762C99.9017 41.7575 98.5774 41.7124 98.2549 41.7136C97.625 41.7162 97.4374 41.7601 97.0143 41.7657C94.8652 41.7942 91.515 41.7421 89.4084 41.74C82.544 41.7333 75.272 41.7524 68.4371 41.7444C64.119 41.7393 56.9431 41.747 52.9564 41.714C52.0967 41.7069 52.3258 41.6589 51.604 41.6589C50.8036 41.6589 50.3701 41.6913 49.9961 41.694C47.4069 41.7123 41.6914 41.7451 39.2469 41.712C38.7813 41.7056 38.4436 41.6679 38.1648 41.6681C38.0237 41.6681 37.7049 41.6938 37.2619 41.6964C33.3507 41.7197 30.4989 41.7047 26.6663 41.6959C19.3262 41.6792 10.8214 41.727 3.11053 41.7011C1.94078 41.6972 1.02692 41.6599 0.5 41.6379L0.243805 41.6387L0.243004 41.3809C0.252618 41.151 0.259329 40.9948 0.259101 40.923C0.257599 40.4046 0.207509 40.0728 0.195136 39.0228C0.154468 35.5317 0.207918 30.8301 0.182807 27.5096C0.170435 25.8691 0.10685 23.6149 0.0927801 22.0005C0.0815332 20.7111 0.106476 17.666 0.0785589 17.0945C0.0616927 16.7469 0.00752059 16.586 0.000738903 16.1696ZM18.7264 41.0369C18.4967 41.1235 20.9107 41.0515 20.0051 41.005C19.8011 40.9945 18.7857 41.0144 18.7264 41.0369ZM120.306 30.1145C120.282 30.1366 120.257 30.1588 120.232 30.1809C120.242 30.4978 120.253 30.8147 120.263 31.1316C120.278 30.9535 120.293 30.7754 120.308 30.5973C120.307 30.4364 120.307 30.2755 120.306 30.1145Z" fill="#2D2D2D"/>
</svg>
