<svg width="141" height="48" viewBox="0 0 141 48" fill="none" xmlns="http://www.w3.org/2000/svg">
<path d="M15.7092 0.5L0 18.4593L9.19565 46.7358H138.318L141 11.5813L123.758 0.5H15.7092Z" fill="url(#paint0_linear_600_4418)"/>
<path d="M16.0924 0.11792L21.4565 9.67076L16.0924 23.0447L0 18.0773L16.0924 0.11792Z" fill="#5089B2"/>
<path d="M124.525 0.11792L107.666 9.28865L124.525 14.6382L141 11.5813L124.525 0.11792Z" fill="#1B85AC" fill-opacity="0.7"/>
<path d="M26.0543 40.2399L8.8125 47.1179H138.701L125.291 40.2399H26.0543Z" fill="#1D3D67"/>
<path d="M106.883 9.67065H20.9235L15.3262 22.9173L25.3214 40.2398H125.674V14.7655L106.883 9.67065Z" fill="#1B85AC" fill-opacity="0.7" stroke="url(#paint1_linear_600_4418)" stroke-width="0.5"/>
<defs>
<linearGradient id="paint0_linear_600_4418" x1="64.1354" y1="-0.0779469" x2="64.1354" y2="48.4696" gradientUnits="userSpaceOnUse">
<stop stop-color="#47B0D7"/>
<stop offset="1" stop-color="#22337B"/>
</linearGradient>
<linearGradient id="paint1_linear_600_4418" x1="65.5191" y1="9.28854" x2="65.5191" y2="41.3861" gradientUnits="userSpaceOnUse">
<stop stop-color="#47B0D7"/>
<stop offset="1" stop-color="#22337B"/>
</linearGradient>
</defs>
</svg>
