<svg width="140" height="100" viewBox="0 0 140 100" fill="none" xmlns="http://www.w3.org/2000/svg">
<path d="M100.873 0.00362908C112.659 -0.0452698 124.002 0.416131 135.828 0.417015C136.085 0.417035 136.341 0.41692 136.598 0.416675C137.776 0.403866 138.668 1.32156 138.681 2.5C138.695 16.9348 139.119 31.588 139.038 46.0486C138.956 60.6809 138.838 75.3838 138.693 90.0403C138.668 92.5274 138.643 95.0139 138.617 97.5C138.629 98.642 137.74 99.5065 136.598 99.5189C124.417 99.3906 112.245 99.2445 100.053 99.0855C85.4045 98.8941 70.724 98.6841 56.0635 98.4638C46.1056 98.3141 36.1367 98.1596 26.18 98.0032C21.8091 97.9346 17.4511 97.8657 13.0825 97.7966C9.82338 97.7449 6.56418 97.6932 3.30504 97.6416C2.85194 97.6343 2.41783 97.6047 2.09776 97.5578C1.77774 97.5108 1.59723 97.4506 1.59766 97.3884C1.59826 97.3262 1.78011 97.2659 2.10127 97.219C2.42229 97.1723 2.85719 97.1432 3.3103 97.1362C6.59692 97.0861 9.88362 97.0361 13.1703 96.986C16.8209 96.9305 20.465 96.8748 24.1147 96.8197C24.6892 97.0749 25.478 97.2685 26.9556 97.354C27.7098 97.3976 28.8095 97.4157 29.6193 97.3683C30.3465 97.3257 30.8943 97.2497 31.4144 97.1773C31.9585 97.1016 32.4748 97.0297 33.1394 97.0043C34.2672 96.9611 35.339 96.8528 36.4646 96.7389C36.8743 96.6975 37.2915 96.6553 37.721 96.6153C41.2048 96.5634 44.6888 96.5119 48.1723 96.4608C49.518 96.488 50.7551 96.51 51.8047 96.4995C52.7461 96.4901 53.6083 96.4362 54.4666 96.3691C55.0059 96.3613 55.5452 96.3535 56.0845 96.3457C59.565 96.2954 63.0469 96.246 66.5288 96.197C69.2457 96.2651 72.0933 96.3312 75.7957 96.3603C77.3913 96.3728 78.9657 96.4096 80.4791 96.445C82.7145 96.4972 84.8174 96.5462 86.6611 96.5096C87.8935 96.485 89.1898 96.5211 90.483 96.5571C92.2172 96.6053 93.9482 96.6535 95.5174 96.5552C96.504 96.4935 97.4102 96.4184 98.2495 96.3487C99.5849 96.2379 100.752 96.1409 101.808 96.1342C103.793 96.1217 105.512 96.041 107.027 95.9697C108.849 95.8841 110.377 95.8122 111.719 95.8896C111.922 95.9014 112.155 95.917 112.417 95.9347C113.799 96.0282 116.008 96.1778 119.18 96.0956C120.309 96.0663 121.37 95.9902 122.409 95.9155C123.921 95.8068 125.39 95.7013 126.963 95.7483C127.197 95.7553 127.443 95.7847 127.666 95.8116C127.95 95.8458 128.198 95.8757 128.345 95.8497C128.776 95.7736 129.46 95.6894 130.204 95.5978C130.75 95.5305 131.328 95.4591 131.862 95.3842C133.44 95.3678 135.019 95.3517 136.598 95.3359L134.434 97.5C134.408 95.0033 134.384 92.5062 134.361 90.0087C134.343 88.1411 134.326 86.2728 134.309 84.404C134.424 83.4483 134.527 82.4707 134.605 81.4385C134.707 80.089 134.739 78.3396 134.779 76.0847C134.809 74.4256 134.844 72.4916 134.915 70.2414C135.048 66.0758 135.018 61.797 134.947 59.0548C134.932 58.475 134.916 57.892 134.899 57.2685C134.833 54.9036 134.75 51.9524 134.659 46.3469C134.572 41.0445 134.55 36.5351 134.533 33.1477C134.524 31.4185 134.518 29.9814 134.504 28.8801C134.481 26.9959 134.461 24.6821 134.44 22.3594C134.408 18.7245 134.376 15.0668 134.333 12.9961C134.318 12.259 134.299 11.4853 134.279 10.65C134.227 8.50164 134.165 5.93857 134.126 2.5L136.598 4.97189C136.331 4.97497 136.06 4.97791 135.783 4.98071C131.737 5.02155 129.229 4.9937 126.625 4.93319C125.566 4.90859 124.632 4.81131 123.67 4.7108C122.304 4.56819 120.88 4.41934 118.953 4.46375C118.503 4.47412 118.023 4.4973 117.521 4.52163C116.599 4.56631 115.601 4.61476 114.58 4.59352C114.224 4.58611 113.91 4.5597 113.602 4.53381C113.264 4.50533 112.932 4.47749 112.557 4.47593C111.153 4.47015 109.787 4.47673 108.573 4.48263C107.008 4.49025 105.696 4.49658 104.881 4.4735C103.43 4.43231 101.842 4.46917 100.235 4.5067C99.0069 4.53536 97.7665 4.56451 96.5656 4.5591C93.1341 4.54359 88.4149 4.61385 83.5523 4.73091C81.7126 4.77517 80.1538 4.71471 78.1564 4.63708C76.9142 4.5888 75.5021 4.53366 73.7467 4.4933C72.7517 4.47042 71.9089 4.52427 71.1287 4.57402C70.4098 4.61986 69.7435 4.66223 69.0598 4.6383C68.4562 4.61714 68.0746 4.5266 67.7122 4.4406C67.3088 4.34489 66.9293 4.25488 66.2943 4.27244C65.9565 4.28179 65.5457 4.32708 65.0572 4.38089C64.864 4.40217 64.6577 4.42469 64.4395 4.44699C64.4507 4.42863 64.4534 4.4122 64.4536 4.39977C64.4543 4.31193 63.8065 4.26567 63.1708 4.22035C62.9171 4.20225 62.6642 4.18438 62.4567 4.16399C61.6926 4.08894 60.2457 4.07673 59.1402 4.08022C58.6724 4.08167 58.2486 4.05443 57.7539 4.02264C57.3148 3.99442 56.8199 3.96256 56.1887 3.94404C55.8287 3.93349 55.5522 3.90803 55.3236 3.88677C55.1581 3.87139 55.0173 3.85824 54.8867 3.85479C54.7736 3.85182 54.6822 3.877 54.5796 3.90536C54.5057 3.92577 54.4254 3.94788 54.3269 3.96232C54.0913 3.99682 53.7884 4.00722 53.5759 3.99614C53.4777 3.99101 53.4001 3.98121 53.3232 3.97146C53.2335 3.9601 53.1443 3.94866 53.0214 3.94465C52.4572 3.92631 51.9086 3.95503 51.3385 3.98487C50.712 4.01765 50.0586 4.05172 49.3311 4.0263C49.1022 4.01829 48.8583 3.99994 48.6222 3.98212C48.3751 3.96348 48.1349 3.94549 47.9308 3.94069C47.1018 3.92124 46.3226 3.98405 45.6058 4.04183C45.129 4.08026 44.6791 4.1164 44.2616 4.12469C43.4962 4.13984 43.0853 4.21524 42.7824 4.27091C42.6254 4.29976 42.4973 4.32346 42.363 4.33062C42.2398 4.32852 42.1149 4.32603 41.9927 4.32331C41.8805 4.31777 41.7646 4.31204 41.6558 4.31387C41.6475 4.31401 41.6394 4.31433 41.6312 4.31448C40.9468 4.2962 40.2744 4.27027 39.6063 4.24441C38.1056 4.18633 36.6234 4.12884 35.0562 4.16125C34.7185 4.16823 34.3744 4.19937 34.0244 4.23101C33.5956 4.26977 33.1569 4.30941 32.7101 4.30656C31.6451 4.29976 30.57 4.2484 29.5112 4.1978C27.9186 4.1217 26.3621 4.04738 24.9312 4.12896C24.459 4.15588 23.9983 4.20073 23.5362 4.24594C23.2787 4.27113 23.0199 4.29654 22.7589 4.31874C22.8142 4.2775 22.8437 4.23878 22.8712 4.20268C22.9278 4.12826 22.9767 4.06456 23.2274 4.01045C23.82 3.88259 24.4916 3.70656 24.4171 3.57818C24.3968 3.54334 24.4132 3.50454 24.4311 3.46547C24.4761 3.36744 24.5217 3.26734 23.9714 3.22207C23.6004 3.19156 22.6475 3.12151 22.0412 3.19648C21.9092 3.21281 21.8288 3.24519 21.7394 3.28117C21.5786 3.34581 21.3873 3.42236 20.8128 3.44018C20.7162 3.44318 20.6109 3.44589 20.5023 3.44841C20.0688 3.45846 19.5835 3.46956 19.402 3.52152C19.1931 3.58138 19.2377 3.64994 19.2897 3.72989C19.3574 3.834 19.438 3.95767 18.9879 4.10672C18.8986 4.13618 18.7286 4.14628 18.6001 4.15394C18.5096 4.15933 18.4404 4.16365 18.4334 4.17252C18.4257 4.1827 18.4545 4.20389 18.4913 4.2307C18.6212 4.32529 18.8466 4.49055 17.9052 4.49756C17.6506 4.49944 17.3593 4.49157 17.098 4.48446C16.7131 4.47399 16.3934 4.46534 16.3505 4.49238C16.3345 4.50264 16.3231 4.51376 16.3137 4.52528C16.0072 4.52203 15.7007 4.51878 15.3942 4.51553C15.001 4.4833 14.4493 4.48606 13.7605 4.48964C13.5933 4.49051 13.4171 4.49131 13.2341 4.49177C12.6294 4.4851 12.0243 4.47847 11.4196 4.47167C10.9402 4.458 10.4299 4.43573 9.89125 4.40038C8.81205 4.32955 7.873 4.21273 6.95555 4.09849C6.56898 4.05036 6.18586 4.00258 5.79741 3.95897C5.94877 3.95361 6.0853 3.94728 6.19048 3.93856C6.91001 3.87889 7.19888 3.76149 7.46443 3.65343C7.64106 3.58155 7.80782 3.51377 8.08386 3.47004C8.58933 3.38992 8.53861 3.29622 8.50149 3.22694C8.48223 3.191 8.4676 3.16156 8.53483 3.14408C8.58909 3.13007 8.71435 3.12349 8.84367 3.11666C8.95634 3.11072 9.07282 3.1045 9.14724 3.09321C10.0511 2.95604 9.77934 2.87643 9.38413 2.76055C9.16617 2.69664 8.91141 2.62165 8.79453 2.51989C8.69416 2.41215 8.72793 2.38063 9.20163 2.33772C8.83255 2.28451 8.46347 2.2313 8.09439 2.17809C7.94959 2.18155 7.83982 2.21482 7.68553 2.27009C7.40998 2.3688 6.51261 2.40488 5.81145 2.43307C5.48682 2.44612 5.20423 2.45754 5.04462 2.47267C4.19635 2.55316 4.44306 2.66526 4.66033 2.7639C4.77992 2.81819 4.89012 2.86844 4.80422 2.90708C4.76767 2.9236 4.81995 2.94 4.87266 2.95673C4.9134 2.96966 4.95522 2.98281 4.95688 2.99633C4.968 3.09456 4.46617 3.16747 4.00054 3.23517C3.73389 3.27394 3.47956 3.31113 3.339 3.35032C3.29618 3.36226 3.26214 3.37444 3.23021 3.38626C3.18358 3.40353 3.13815 3.41999 3.06701 3.43409C2.90496 3.46621 2.57122 3.48787 2.20543 3.51147C2.0179 3.52357 1.82206 3.5362 1.63689 3.55107C1.62333 3.55216 1.61026 3.55331 1.59766 3.55452L2.65218 2.5C2.67239 2.71048 2.70914 2.79229 2.74743 2.87839C2.77611 2.9429 2.80565 3.01045 2.82998 3.13459C2.87399 3.35938 2.88987 3.81348 2.90462 4.23482C2.91104 4.41832 2.91741 4.59581 2.92564 4.74545C2.92898 4.80635 2.93566 4.83554 2.94483 4.84196C2.97557 5.5337 3.00698 6.19423 3.03774 6.83712C3.19196 10.0602 3.32566 12.8502 3.22875 17.0164C3.21042 17.8041 3.21408 18.6501 3.22875 19.5047C3.19022 22.239 3.15043 24.9748 3.10963 27.7082C3.02113 28.2492 2.9468 28.911 2.88847 29.6945C2.77896 31.166 2.75556 32.6797 2.72793 34.4657C2.7075 35.7862 2.68469 37.2558 2.62314 38.9684C2.5197 41.8457 2.43221 44.8 2.38674 48.1335C2.34147 51.4525 2.3081 55.2525 2.29627 57.9408C2.2898 59.4063 2.21063 60.9457 2.13694 62.3804C2.0333 64.3984 1.9404 66.2092 2.0751 67.3147C2.11815 67.6678 2.19289 68.0091 2.2655 68.3412C2.31721 68.5778 2.36771 68.8111 2.40532 69.0396C2.39364 69.6481 2.38209 70.2573 2.37029 70.8663C2.28052 71.9483 2.18428 73.6297 2.28439 75.255C2.27202 75.8831 2.25971 76.5117 2.24722 77.1185C2.22111 78.4427 2.19466 79.7383 2.16802 81.0457C2.15921 81.4724 2.15038 81.9034 2.14151 82.3354C2.14141 82.3395 2.14131 82.3436 2.14121 82.3477C2.12335 83.2173 2.10538 84.0936 2.08729 84.9553C2.07957 85.3243 2.07185 85.6934 2.06414 86.0625C2.04455 87.0005 2.0249 87.9452 2.00504 88.8736C1.99448 89.365 1.984 89.8612 1.97336 90.3581C1.95609 91.1644 1.93874 91.9768 1.92126 92.785C1.89302 94.092 1.86445 95.3929 1.83566 96.6963C1.8309 96.9095 1.81596 97.1143 1.79332 97.2649C1.77063 97.4153 1.7422 97.5002 1.7129 97.5C1.68358 97.4997 1.65507 97.4141 1.63247 97.2631C1.60995 97.1122 1.59537 96.9076 1.59074 96.6946C1.56273 95.3902 1.53503 94.0877 1.50757 92.7797C1.4906 91.9714 1.47347 91.1593 1.4567 90.3529C1.44636 89.8557 1.4362 89.36 1.42593 88.8684C1.40664 87.9398 1.38737 86.9935 1.36836 86.0555C1.36084 85.6864 1.35333 85.3173 1.34581 84.9482C1.32821 84.0842 1.31078 83.2056 1.29342 82.3337C1.29332 82.3284 1.29321 82.3231 1.29311 82.3179C1.28457 81.8889 1.27601 81.4606 1.26752 81.0369C1.24168 79.729 1.21607 78.4327 1.19076 77.108C1.1771 76.4236 1.16374 75.7103 1.15024 75.0023C1.14272 74.6081 1.13517 74.2147 1.1277 73.8284C1.12372 73.6172 1.11978 73.4031 1.11582 73.1879C1.02216 68.2484 0.932044 63.3437 0.845609 58.3935C0.759172 53.4619 0.676298 48.5215 0.596724 43.5957C0.517146 38.6581 0.441 33.7291 0.367945 28.7961C0.238191 20.0397 0.11497 11.2735 -0.000429178 2.5C-0.0102548 1.59604 0.693696 0.91174 1.59766 0.901915C24.1924 0.604724 46.8358 0.359404 69.4862 0.187931C73.9715 0.153751 78.5738 0.122943 83.068 0.0953233C87.6114 0.0676888 92.0614 0.0431715 96.6165 0.0222116C98 0.0156606 99.4181 0.00952058 100.873 0.00362908Z" fill="black"/>
</svg>
