<svg width="285" height="61" viewBox="0 0 285 61" fill="none" xmlns="http://www.w3.org/2000/svg">
<path d="M6.57229 -1.97966C10.4389 -2.03177 15.5073 -1.97605 19.3593 -1.89958C20.5665 -1.87587 19.9552 -1.76985 20.7885 -1.7487C22.4184 -1.70748 23.9368 -1.75948 25.5474 -1.71037C26.0812 -1.69358 25.4168 -1.52565 25.9765 -1.51189C29.0436 -1.43767 31.9451 -1.48045 35.0521 -1.44475C50.3562 -1.26863 65.3997 -1.20559 80.8909 -1.12908C85.9988 -1.10399 92.2081 -0.951589 97.484 -1.01824C98.0999 -1.02617 97.7327 -1.17357 97.8499 -1.18572C99.6878 -1.3717 99.0767 -1.07413 100.277 -1.0346C105.04 -0.878492 110.336 -0.864916 114.919 -0.921802C116.869 -0.946436 114.914 -1.23921 116.878 -1.07488C117.014 -1.06378 116.519 -0.907247 117.054 -0.890552C118.267 -0.853004 120.568 -0.880982 121.508 -0.86858C123.319 -0.843886 123.619 -0.845461 125.332 -0.843678C127.674 -0.839877 130.46 -0.762068 132.973 -0.797535C133.51 -0.805571 132.8 -0.96603 133.655 -0.993335C134.511 -1.0206 136.776 -1.00699 137.54 -0.969166C138.304 -0.931321 137.979 -0.805203 138.114 -0.776295C139.226 -0.532301 141.846 -0.870232 142.183 -0.87859C148.33 -1.02099 153.601 -0.828481 159.371 -0.829029C163.751 -0.829854 168.435 -0.893408 172.603 -0.884693C177.568 -0.873689 181.777 -0.786738 186.601 -0.801686C187.11 -0.803078 186.513 -0.991741 187.135 -0.993824C193.741 -1.01578 200.301 -0.995212 206.879 -0.867847C207.538 -0.854908 206.688 -0.689263 207.347 -0.666432C211.382 -0.530302 217.767 -0.203286 220.163 -0.924488C222.896 -0.896326 226.214 -0.867229 228.66 -0.721852C230.236 -0.628284 228.705 -0.447832 230.642 -0.524831C231.078 -0.541987 230.51 -0.700019 231.165 -0.713795C233.923 -0.771649 236.936 -0.720278 239.665 -0.80193C240.22 -0.818909 240.068 -0.960512 240.225 -0.986011C241.547 -1.19252 243.747 -0.851149 244.226 -0.826344C247.878 -0.641369 250.545 -0.714161 253.947 -0.709645C254.736 -0.708517 253.803 -0.898722 254.563 -0.904468C258.502 -0.931729 262.584 -0.915381 266.441 -0.830982C267.3 -0.811752 266.51 -0.649732 266.921 -0.632253C268.729 -0.557152 269.129 -0.863165 270.863 -0.797047C271.229 -0.783501 271.023 -0.6448 271.09 -0.629567C272.133 -0.390445 273.04 -0.729264 273.309 -0.736744C276.704 -0.838954 278.875 -0.485244 282.155 -0.535329C282.548 -0.541678 281.663 -0.717176 282.766 -0.724293C283.507 -0.729176 284.252 -0.733077 285 -0.736L285.732 -0.740242L285.736 0C285.762 6.67705 285.71 13.6214 285.584 20.163C285.563 21.294 285.431 20.4866 285.414 20.5578C285.161 21.7178 285.501 22.4685 285.514 22.8372C285.606 25.7468 285.321 28.4646 285.726 30.4415C285.613 40.3288 285.737 50.1797 285.603 60L285.607 60.5996L285 60.6031C282.582 60.5701 280.165 60.5214 277.751 60.4496C277.595 60.4454 277.874 60.2779 277.564 60.2702C273.831 60.1761 274.548 60.4365 272.078 60.7551C271.456 60.835 269.564 60.4505 269.396 60.4223C268.786 60.3184 269.419 60.0691 269.214 60.049C267.524 59.891 267.799 60.7155 265.519 60.7157C265.448 60.7144 265.747 60.5626 265.556 60.5475C264.961 60.5002 264.371 60.5605 263.79 60.5082C262.458 60.3874 261.983 59.9867 259.949 60.2199C259.692 60.2502 260.085 60.7178 258.049 60.6957C257.237 60.6865 253.644 60.6945 252.637 60.6642C251.631 60.634 252.322 60.4833 252.25 60.4767C249.54 60.2775 250.568 60.1949 249.21 59.8998C247.853 59.6059 248.229 60.3069 247.676 60.3852C247.121 60.4632 245.134 60.2988 244.646 60.2416C244.158 60.1844 244.767 60.0887 244.333 60.0563C241.455 59.8449 243.07 60.4043 242.122 60.5156C239.887 60.779 238.146 60.2591 236.099 60.2082C235.546 60.1944 235.998 60.3128 235.505 60.3239C233.552 60.3662 232.378 60.204 230.156 60.3527C229.793 60.377 227.997 60.6895 226.834 60.4601C226.67 60.4271 227.137 60.2975 226.305 60.2685C225.062 60.2249 222.822 60.1966 221.486 60.2399C220.499 60.272 221.63 60.4854 220.388 60.4191C219.836 60.3895 220.859 60.2646 219.822 60.2194C218.791 60.1742 216.154 60.1797 215.15 60.184C214.149 60.1884 214.697 60.3503 214.616 60.3613C214.126 60.4237 212.204 60.5018 212.034 60.5016C203.465 60.5214 195.563 60.2485 187.22 60.3388C186.566 60.3457 187.002 60.5164 186.902 60.5192C184.661 60.5908 186.428 60.1368 184.862 59.9848C185.088 60.3313 184.164 60.2686 182.585 60.3066C181.824 60.3252 182.239 60.4593 182.169 60.4731C181.041 60.6769 180.255 60.4136 180.053 60.3598C179.306 60.1617 178.493 60.3958 177.984 60.2634C177.476 60.1319 178.646 59.9371 177.131 59.9396C176.707 60.0637 177.831 60.3878 176.681 60.4404C172.344 60.6391 164.247 60.3847 160.76 60.3583C157.279 60.3319 156.155 60.3548 154.127 60.31C150.463 60.2289 151.806 60.4694 149.531 60.5795C147.249 60.6896 148.358 60.0978 148.03 59.9706C147.709 59.8435 147.357 59.9744 146.957 59.9045C146.557 59.8346 147.422 59.7481 146.483 59.7219C145.543 59.6956 142.975 59.9219 142.642 60.0549C141.939 60.3367 143.096 60.6324 140.61 60.5285C140.468 60.5223 140.931 60.3667 140.384 60.351C136.037 60.2312 131.521 60.2238 127.179 60.1178C126.582 60.103 127.115 59.9299 126.768 59.9194C123.149 59.8086 124.443 60.1005 122.459 60.4247C122.905 59.9933 121.808 59.7293 119.061 59.7267C117.41 59.7251 117.694 59.9135 116.626 60.0463C116.306 60.0864 115.138 59.957 114.926 60.0456C114.228 60.3353 115.328 60.6596 112.496 60.5304C112.372 60.5243 112.768 60.3657 112.339 60.3561C109.564 60.2933 109.232 60.5963 106.232 60.633C103.881 60.6618 99.6992 60.477 97.0221 60.447C97.0784 59.9619 94.5498 60.0729 93.524 60.4074C91.7866 60.3937 89.91 60.4126 88.2307 60.3664C87.6528 60.3506 88.0325 60.2102 87.9596 60.195C86.842 59.9569 86.0868 60.2823 85.7118 60.2951C81.6472 60.4191 78.3357 60.1725 74.4567 60.4135C74.319 60.4222 74.096 60.7591 73.059 60.5131C72.992 60.4962 74.2731 60.3428 72.4484 60.331C70.6233 60.3191 67.183 60.1385 64.6493 60.2946C64.0362 60.3322 62.4854 60.6057 61.2407 60.392C61.0749 60.363 61.2563 60.2664 61.017 60.2126C60.2431 60.0412 59.8207 60.3818 58.9112 60.0925C58.0018 59.8031 56.11 59.5864 53.5548 59.7861C53.4734 59.7919 52.8686 60.0618 52.065 60.0575C50.7823 60.0505 48.9613 59.9943 47.622 59.996C46.9807 59.997 47.3911 60.1646 47.2798 60.1677C42.9679 60.2616 39.8991 60.1121 35.2798 60.0473C34.4331 60.0351 31.9996 60.2637 30.3604 60.0829C28.5603 59.8851 30.4101 59.0622 26.2726 59.2582C24.6038 59.3367 22.4911 60.3807 19.4922 59.8398C13.6761 59.9738 8.29726 59.697 2.46488 59.8884C2.20255 59.8968 1.37323 60.1882 0.756598 60.1843C0.469639 60.1822 0.223208 60.1675 0 60.1478L-0.146988 60.1487L-0.14785 60C-0.104915 59.5113 -0.0388039 59.1338 -0.0326451 58.6851C0.00837688 55.9462 -0.108141 53.4399 -0.0900179 50.7992C-0.0834329 49.7966 0.0573844 50.1472 0.065255 48.9514C0.0729941 47.7564 -0.112436 46.9595 -0.0228795 45.3401C0.0453834 44.1171 0.424396 42.8942 0.468574 41.2708C0.0947199 41.2089 0.10242 40.094 0.00373178 38.1122C-0.015416 37.7313 -0.145537 38.1398 -0.161307 37.9596C-0.228372 37.2262 -0.120529 36.5476 -0.193533 35.8512C-0.211067 35.6818 -0.33874 35.6739 -0.360281 35.5354C-0.548304 34.3578 -0.261115 32.4178 -0.211111 32.0846C-0.0212077 30.8076 -0.187262 30.2109 -0.112479 29.2314C-0.0377056 28.2535 0.0557681 29.7157 0.101144 28.5733C0.194997 26.2056 0.174378 23.1633 0.180245 20.7585C0.181798 19.799 0.0113731 20.4536 0.00763802 20.3163C-0.0355868 18.3322 0.145696 16.3259 -0.193777 15.2257C0.683975 13.8501 -0.278915 14.0293 -0.103201 11.1933C-0.0889896 10.9699 0.326093 10.6857 0.387031 11.5434C0.447912 12.401 0.318163 13.7015 0.413154 14.8915C0.435447 15.1733 0.824406 16.7875 0.847967 17.0077C1.03211 18.7329 0.411823 18.9774 0.377754 19.0687C0.0100918 20.1037 0.429122 22.0763 0.458076 22.5957C0.590746 24.9721 0.503514 26.9911 0.598212 28.9787C0.659417 30.2786 1.06573 30.4058 1.05329 31.4266C1.01218 34.8199 0.445378 36.0044 0.936834 39.202C1.04165 39.8876 1.48574 39.2062 1.13654 41.663C1.11453 41.8174 0.795076 43.6414 0.997137 44.6952C1.02261 44.8276 1.15204 44.8234 1.16291 44.9979C1.23323 46.1678 1.13013 46.948 1.17951 48.2223C1.22889 49.4966 1.30251 51.0288 1.25861 52.4838C1.23236 53.3606 0.99123 54.4856 0.932196 54.9053C0.762131 56.0905 1.04097 57.3613 0.835028 58.0955C0.628054 58.8359 0.313731 57.3884 0.180001 59.33C0.516249 59.4019 0.861373 59.5671 1.19953 59.6827C1.19923 59.7885 1.19888 59.8943 1.19847 60L0 58.8015C4.14593 58.8176 8.23034 58.9207 12.3933 58.9062C12.9226 58.904 12.3813 58.7232 12.9487 58.7162C15.3426 58.6875 17.4335 58.8164 19.916 58.7651C21.8376 58.7247 23.9448 58.5333 25.9541 58.485C27.1815 58.8698 30.1632 58.7392 32.3292 58.7743C33.088 58.7865 33.0372 58.8893 33.5768 58.9228C35.6125 59.0468 34.6586 58.7068 35.2167 58.6533C37.611 58.4249 37.816 59.1945 40.6389 59.1755C40.7884 59.1747 42.6166 58.7645 42.8683 58.7389C44.4682 58.5724 43.1331 58.8817 44.1344 58.912C45.9624 58.9674 47.2328 59.0654 49.3776 58.9452C50.003 58.9097 51.5033 58.654 52.7178 58.8517C52.8776 58.8776 52.7893 59.0132 52.9178 59.0212C55.2457 59.1535 55.3069 58.7275 56.6371 58.5832C57.9675 58.4389 60.0224 58.733 60.4405 58.8178C61.5346 59.0371 59.6022 58.9115 59.543 58.933C58.847 59.1891 60.3457 59.145 61.4907 59.1667C61.6565 59.5844 63.2579 59.5594 62.6778 59.1874C62.6119 59.1468 61.7207 59.1858 61.4907 59.1667C62.4959 58.7568 64.2558 58.7043 66.1997 59.0873C67.1095 59.2669 66.2494 59.4762 69.0134 59.3996C70.2678 59.365 69.7831 59.0774 70.8902 58.999C73.4192 58.82 76.7056 59.0884 79.313 59.0461C80.2593 59.0307 79.3375 58.8733 79.9842 58.8574C81.7005 58.8146 83.2142 58.9328 84.9379 58.8722C85.0941 58.8666 84.7125 58.7017 85.2485 58.6996C89.3121 58.6805 92.8504 58.7861 97.0932 58.789C99.1431 58.7903 102.808 58.6994 104.932 58.7177C108.612 58.7484 113.14 58.9881 116.284 58.9299C118.335 58.8926 117.885 58.7277 118.764 58.6154C120.459 58.3977 123.461 58.7877 123.865 58.8481C123.877 58.8501 122.112 58.8889 123.054 58.9736C123.601 59.1499 123.845 58.8488 123.865 58.8481C124.13 58.8871 127.655 58.9245 128.355 58.893C128.736 58.8758 128.523 58.7196 128.721 58.7136C133.435 58.5738 138.157 58.5341 142.937 58.6071C143.021 58.6103 142.895 58.785 143.093 58.7902C145.86 58.8679 147.632 58.6542 149.915 58.5273C152.197 58.4004 154.007 58.4429 155.358 58.7429C157.08 58.7051 159.551 58.8377 160.973 58.9181C162.394 58.9986 162.593 58.6585 162.718 58.6518C166.619 58.4366 168.875 58.6313 172.923 58.6616C174.847 58.6765 178.664 58.6272 180.748 58.59C182.395 58.5601 183.387 58.6398 184.904 58.5888C185.109 58.582 184.902 58.4306 184.965 58.4247C186.658 58.2436 185.844 58.6138 186.194 58.6799C187.462 58.9203 188.245 59.0483 190.413 58.9352C190.913 58.9093 192.371 58.3763 193.282 58.3452C194.468 58.3056 194.02 58.4967 195.262 58.4504C195.368 58.4466 195.346 58.3287 196.112 58.3339C199.668 58.3565 203.545 58.4251 207.241 58.4133C207.745 58.4121 207.098 58.2252 207.828 58.2204C211.25 58.1982 215.001 58.2052 218.335 58.2927C219.156 58.3148 218.641 58.4457 218.819 58.4846C219.913 58.7197 221.464 58.378 221.72 58.3715C227.825 58.2073 232.497 58.5165 238.718 58.3693C239.057 58.3607 241.664 57.9944 242.827 58.3085C242.907 58.3294 244.058 58.6508 245.075 58.4311C245.138 58.4173 244.421 58.2519 245.673 58.2687C246.924 58.2856 248.938 58.1751 250.658 58.3569C251.202 58.4141 252.49 58.7348 254.114 58.4792C254.22 58.4613 256.727 57.8834 257.623 58.2822C257.768 58.3478 257.616 58.7697 259.555 58.5534C259.925 58.5115 259.252 58.4173 260.228 58.3586C261.724 58.268 263.705 58.381 265.543 58.1931C265.863 58.1598 267.228 57.8734 268.322 58.0908C268.494 58.1248 268.168 58.2657 268.746 58.2814C271.495 58.357 274.373 58.2628 277.164 58.3603C278.152 58.3945 277.647 58.6223 278.677 58.6833C279.708 58.7443 281.784 58.803 282.862 58.6989C283.941 58.5948 282.763 58.2319 284.378 58.2028C284.586 58.1991 284.793 58.1957 285 58.1925L283.193 60C283.089 53.1867 283.291 46.4321 283.321 39.6251C283.325 38.5848 283.196 39.4472 283.193 37.9142C283.183 32.2621 283.062 22.5037 283.338 17.5993C283.559 13.6696 283.727 18.6148 283.817 15.612C283.86 14.163 283.438 12.5953 283.424 12.2455C283.29 8.8283 283.476 6.45344 283.419 3.37778C283.407 2.74265 283.236 3.36559 283.228 2.82503C283.213 1.89572 283.225 0.942551 283.239 0L285 1.76129C284.07 1.74773 283.15 1.73239 282.274 1.73932C281.482 1.74598 281.628 1.8766 280.9 1.86652C279.157 1.8439 277.616 1.78899 275.917 1.66657C275.762 1.65541 276.806 1.49293 275.517 1.48688C273.43 1.47756 270.84 1.35679 268.439 1.48151C267.727 1.51903 267.699 1.81756 266.168 1.61139C265.847 1.56833 266.256 1.20986 264.473 1.5196C264.173 1.57107 261.176 1.98884 259.706 1.71955C259.318 1.64867 258.328 1.35533 257.471 1.40143C257.355 1.40879 257.82 1.56914 257.111 1.58478C254.609 1.63711 251.987 1.62001 249.417 1.67023C248.73 1.68396 249.753 1.84989 248.73 1.86505C245.917 1.90699 242.405 1.86475 239.654 1.81281C238.64 1.79334 239.341 1.65589 239.267 1.64093C238.081 1.39763 237.379 1.72603 236.985 1.74518C234.536 1.85984 232.67 1.70558 230.413 1.7464C229.79 1.75725 230.231 1.91384 230.107 1.9278C228.821 2.06422 229.779 1.78301 228.965 1.75202C226.684 1.66425 224.141 1.67683 221.834 1.69684C220.987 1.70442 221.939 1.88598 221.179 1.89069C216.679 1.92198 212 1.9046 207.608 1.80451C206.781 1.78533 207.301 1.64552 207.129 1.61359C205.941 1.39018 204.2 1.69491 203.799 1.72394C201.977 1.85648 201.27 1.73285 199.661 1.75592C191.803 1.87082 182.1 1.78893 174.682 1.73835C165.016 1.67324 157.515 1.54023 148.298 1.57477C147.712 1.57679 148.302 1.76278 147.797 1.76691C141.277 1.81175 134.858 1.73907 128.325 1.79279C127.789 1.79687 128.562 1.97319 127.701 1.98566C125.936 2.01248 123.7 2.0029 121.916 1.9466C121.045 1.91947 122.213 1.76817 121.337 1.74396C119.296 1.68724 117.11 1.67468 115.014 1.70295C114.122 1.71536 115.468 1.89569 114.309 1.89777C106.413 1.91566 98.6587 1.94672 90.6799 1.7132C90.1329 1.69716 89.653 1.33066 88.4899 1.40094C88.4023 1.50266 88.4071 1.6223 88.3689 1.73102C76.8749 1.78958 65.4982 1.66253 53.972 1.64289C53.486 1.6421 54.3259 1.83629 53.385 1.83576C47.9395 1.83289 42.6516 1.88668 37.0815 1.69367C36.5288 1.67479 36.8124 1.33316 35.1837 1.38483C34.8965 1.39426 32.4435 1.43982 31.8093 1.51398C31.7232 1.52517 32.1707 1.68463 31.3803 1.68927C26.7869 1.71349 21.9732 1.67708 17.3878 1.57965C16.6477 1.56363 17.4358 1.39381 16.9087 1.38092C13.1697 1.29078 9.10275 1.41987 5.52996 1.26569C3.13845 1.16188 4.02386 0.868347 2.75304 0.579414C2.5733 0.538649 1.09241 0.532189 1.01583 0.364082C0.819218 -0.0586387 1.53652 -0.521516 1.24219 -0.972095C1.18001 -1.06915 -0.803289 -0.964616 0.37095 -1.19915C0.452983 -1.21484 1.89088 -1.29268 2.24504 -1.37224C2.49161 -1.42725 2.04728 -1.59821 2.55037 -1.66863C3.05342 -1.73897 3.6062 -1.59566 4.44025 -1.67839C5.27392 -1.76215 4.90735 -1.95664 6.57229 -1.97966ZM167.374 59.2778C168.691 59.4411 168.885 58.8429 167.461 58.986C167.392 58.9936 167.306 59.2698 167.374 59.2778ZM8.10029 59.3722C9.82129 59.6361 10.999 59.2481 9.78485 59.0444C8.57096 58.8408 7.57595 59.2923 8.10029 59.3722ZM0.435127 50.2543C0.227099 52.2657 1.07535 52.5824 0.903875 50.4281C0.894185 50.3028 0.447206 50.1368 0.435127 50.2543ZM8.64642 0.497138C8.62825 0.489195 7.56373 0.481453 7.53828 0.489326C6.97145 0.67931 9.10005 0.69466 8.64642 0.497138ZM0.225411 32.5453C0.110666 33.1731 0.243125 34.9811 0.385811 34.2009C0.500597 33.5728 0.368147 31.7633 0.225411 32.5453ZM236.044 59.9162C236.065 59.9251 236.828 59.9331 236.813 59.8827C236.761 59.7205 235.699 59.7663 236.044 59.9162ZM0.215645 2.44666C0.183716 6.89359 -0.516985 9.58981 -0.437917 4.74716C-0.423612 3.8702 -0.214469 6.63721 -0.151297 5.52101C-0.0362076 3.47863 -0.476162 2.12246 -0.240408 0.0382483C-0.197257 -0.339051 0.219024 2.19299 0.216622 2.45456C0.216296 2.45193 0.215971 2.4493 0.215645 2.44666ZM168.132 59.9963C168.158 60.0042 169.215 60.0117 169.24 60.0038C169.812 59.8139 167.684 59.7987 168.132 59.9963ZM280.577 60.2861C280.636 60.3029 283.088 60.3187 283.167 60.3032C284.447 59.9926 279.49 59.9598 280.577 60.2861ZM96.98 60.434C95.8272 60.6251 94.4482 60.6476 93.5292 60.4076C94.6748 60.4204 95.8281 60.4223 96.98 60.434Z" fill="#2D2D2D"/>
</svg>
