<svg width="257" height="184" viewBox="0 0 257 184" fill="none" xmlns="http://www.w3.org/2000/svg">
<path d="M16.967 184L0 20.6864L257 0L242.029 184H16.967Z" fill="#5089B2"/>
<path opacity="0.2" d="M52.3984 167.669C57.3541 167.835 62.536 167.994 67.6063 168.144C113.405 169.494 159.213 170.169 204.971 170.169C215.339 170.169 225.761 170.134 236.041 170.065L238.187 170.079L238.425 167.915C241.826 132.665 244.825 97.374 247.423 62.0415C247.796 56.9674 248.16 51.8924 248.517 46.8165C247.829 51.8581 247.149 56.9006 246.478 61.944C241.802 97.062 237.529 132.222 233.658 167.423L236.041 165.272C225.761 165.203 215.339 165.169 204.971 165.169C159.213 165.169 113.405 165.844 67.6063 167.194C62.536 167.344 57.3541 167.502 52.3984 167.669Z" fill="#1D3D67"/>
</svg>
