<svg width="287" height="63" viewBox="0 0 287 63" fill="none" xmlns="http://www.w3.org/2000/svg">
<path d="M7.01565 0.0203396C10.8822 -0.0317659 15.9507 0.0239475 19.8026 0.100417C21.0098 0.124135 20.3985 0.230151 21.2319 0.251296C22.8617 0.292517 24.3802 0.240522 25.9908 0.289626C26.5246 0.306418 25.8601 0.474348 26.4198 0.488112C29.4869 0.562327 32.3885 0.519553 35.4955 0.55525C50.7995 0.731371 65.843 0.79441 81.3343 0.870923C86.4422 0.896008 92.6515 1.04841 97.9274 0.981762C98.5432 0.973831 98.1761 0.826431 98.2932 0.814282C100.131 0.628299 99.52 0.925869 100.72 0.965405C105.483 1.12151 110.779 1.13508 115.363 1.0782C117.313 1.05356 115.358 0.76079 117.321 0.925122C117.457 0.936225 116.963 1.09275 117.497 1.10945C118.71 1.147 121.011 1.11902 121.951 1.13142C123.762 1.15611 124.062 1.15454 125.775 1.15632C128.118 1.16012 130.904 1.23793 133.417 1.20246C133.953 1.19443 133.243 1.03397 134.098 1.00666C134.955 0.979403 137.22 0.993009 137.983 1.03083C138.747 1.06868 138.422 1.1948 138.557 1.2237C139.669 1.4677 142.289 1.12977 142.626 1.12141C148.773 0.979013 154.045 1.17152 159.814 1.17097C164.195 1.17015 168.878 1.10659 173.046 1.11531C178.012 1.12631 182.22 1.21326 187.044 1.19831C187.553 1.19692 186.956 1.00826 187.578 1.00618C194.184 0.984222 200.744 1.00479 207.322 1.13215C207.982 1.14509 207.132 1.31074 207.791 1.33357C211.826 1.4697 218.21 1.79671 220.606 1.07551C223.34 1.10367 226.658 1.13277 229.103 1.27815C230.68 1.37172 229.148 1.55217 231.085 1.47517C231.522 1.45801 230.954 1.29998 231.609 1.2862C234.367 1.22835 237.38 1.27972 240.108 1.19807C240.663 1.18109 240.511 1.03949 240.669 1.01399C241.99 0.807483 244.19 1.14885 244.67 1.17366C248.321 1.35863 250.988 1.28584 254.39 1.29036C255.179 1.29148 254.246 1.10128 255.006 1.09553C258.946 1.06827 263.027 1.08462 266.885 1.16902C267.743 1.18825 266.954 1.35027 267.364 1.36775C269.172 1.44285 269.573 1.13683 271.307 1.20295C271.672 1.2165 271.466 1.3552 271.533 1.37043C272.577 1.60956 273.484 1.27074 273.752 1.26326C277.148 1.16105 279.318 1.51476 282.599 1.46467C282.991 1.45832 282.106 1.28282 283.209 1.27571C283.95 1.27082 284.695 1.26692 285.443 1.264L286.175 1.25976L286.179 2C286.205 8.67705 286.154 15.6214 286.028 22.163C286.006 23.294 285.874 22.4866 285.858 22.5578C285.604 23.7178 285.944 24.4685 285.957 24.8372C286.049 27.7468 285.764 30.4646 286.169 32.4415C286.056 42.3288 286.18 52.1797 286.046 62L286.05 62.5996L285.443 62.6031C283.025 62.5701 280.609 62.5214 278.194 62.4496C278.039 62.4454 278.317 62.2779 278.007 62.2702C274.275 62.1761 274.991 62.4365 272.522 62.7551C271.899 62.835 270.007 62.4505 269.839 62.4223C269.229 62.3184 269.862 62.0691 269.658 62.049C267.967 61.891 268.243 62.7155 265.962 62.7157C265.891 62.7144 266.191 62.5626 265.999 62.5475C265.405 62.5002 264.815 62.5605 264.233 62.5082C262.901 62.3874 262.427 61.9867 260.393 62.2199C260.135 62.2502 260.528 62.7178 258.492 62.6957C257.681 62.6865 254.088 62.6945 253.081 62.6642C252.075 62.634 252.765 62.4833 252.694 62.4767C249.984 62.2775 251.011 62.1949 249.654 61.8998C248.296 61.6059 248.672 62.3069 248.119 62.3852C247.565 62.4632 245.578 62.2988 245.089 62.2416C244.601 62.1844 245.21 62.0887 244.776 62.0563C241.899 61.8449 243.513 62.4043 242.565 62.5156C240.33 62.779 238.589 62.2591 236.543 62.2082C235.989 62.1944 236.441 62.3128 235.948 62.3239C233.995 62.3662 232.821 62.204 230.599 62.3527C230.236 62.377 228.44 62.6895 227.278 62.4601C227.113 62.4271 227.581 62.2975 226.749 62.2685C225.505 62.2249 223.266 62.1966 221.929 62.2399C220.943 62.272 222.073 62.4854 220.832 62.4191C220.28 62.3895 221.303 62.2646 220.266 62.2194C219.234 62.1742 216.597 62.1797 215.594 62.184C214.592 62.1884 215.14 62.3503 215.059 62.3613C214.569 62.4237 212.647 62.5018 212.477 62.5016C203.908 62.5214 196.007 62.2485 187.664 62.3388C187.009 62.3457 187.445 62.5164 187.345 62.5192C185.104 62.5908 186.871 62.1368 185.305 61.9848C185.532 62.3313 184.607 62.2686 183.029 62.3066C182.268 62.3252 182.682 62.4593 182.613 62.4731C181.485 62.6769 180.699 62.4136 180.497 62.3598C179.749 62.1617 178.936 62.3958 178.428 62.2634C177.919 62.1319 179.089 61.9371 177.575 61.9396C177.15 62.0637 178.274 62.3878 177.125 62.4404C172.787 62.6391 164.69 62.3847 161.203 62.3583C157.722 62.3319 156.598 62.3548 154.57 62.31C150.906 62.2289 152.249 62.4694 149.974 62.5795C147.693 62.6896 148.802 62.0978 148.474 61.9706C148.152 61.8435 147.8 61.9744 147.4 61.9045C147.001 61.8346 147.865 61.7481 146.926 61.7219C145.987 61.6956 143.419 61.9219 143.086 62.0549C142.382 62.3367 143.539 62.6324 141.054 62.5285C140.911 62.5223 141.375 62.3667 140.827 62.351C136.48 62.2312 131.964 62.2238 127.622 62.1178C127.025 62.103 127.559 61.9299 127.211 61.9194C123.592 61.8086 124.886 62.1005 122.903 62.4247C123.348 61.9933 122.251 61.7293 119.504 61.7267C117.853 61.7251 118.138 61.9135 117.07 62.0463C116.749 62.0864 115.581 61.957 115.369 62.0456C114.671 62.3353 115.772 62.6596 112.94 62.5304C112.816 62.5243 113.211 62.3657 112.782 62.3561C110.007 62.2933 109.675 62.5963 106.675 62.633C104.324 62.6618 100.143 62.477 97.4655 62.447C97.5217 61.9619 94.9931 62.0729 93.9673 62.4074C92.2299 62.3937 90.3533 62.4126 88.6741 62.3664C88.0962 62.3506 88.4758 62.2102 88.403 62.195C87.2854 61.9569 86.5301 62.2823 86.1551 62.2951C82.0906 62.4191 78.779 62.1725 74.9001 62.4135C74.7624 62.4222 74.5394 62.7591 73.5024 62.5131C73.4353 62.4962 74.7164 62.3428 72.8917 62.331C71.0667 62.3191 67.6263 62.1385 65.0927 62.2946C64.4795 62.3322 62.9287 62.6057 61.6841 62.392C61.5182 62.363 61.6997 62.2664 61.4603 62.2126C60.6865 62.0412 60.2641 62.3818 59.3546 62.0925C58.4452 61.8031 56.5533 61.5864 53.9982 61.7861C53.9168 61.7919 53.312 62.0618 52.5084 62.0575C51.2257 62.0505 49.4047 61.9943 48.0653 61.996C47.4241 61.997 47.8345 62.1646 47.7231 62.1677C43.4113 62.2616 40.3424 62.1121 35.7232 62.0473C34.8764 62.0351 32.443 62.2637 30.8037 62.0829C29.0037 61.8851 30.8534 61.0622 26.716 61.2582C25.0472 61.3367 22.9345 62.3807 19.9356 61.8398C14.1194 61.9738 8.74062 61.697 2.90824 61.8884C2.64591 61.8968 1.81659 62.1882 1.19996 62.1843C0.912998 62.1822 0.666567 62.1675 0.443359 62.1478L0.296372 62.1487L0.295509 62C0.338445 61.5113 0.404556 61.1338 0.410714 60.6851C0.451736 57.9462 0.335218 55.4399 0.353341 52.7992C0.359926 51.7966 0.500744 52.1472 0.508614 50.9514C0.516353 49.7564 0.330924 48.9595 0.42048 47.3401C0.488743 46.1171 0.867755 44.8942 0.911933 43.2708C0.538079 43.2089 0.54578 42.094 0.447091 40.1122C0.427943 39.7313 0.297822 40.1398 0.282053 39.9596C0.214988 39.2262 0.32283 38.5476 0.249826 37.8512C0.232293 37.6818 0.104619 37.6739 0.0830786 37.5354C-0.104944 36.3578 0.182244 34.4178 0.232248 34.0846C0.422152 32.8076 0.256098 32.2109 0.330881 31.2314C0.405654 30.2535 0.499128 31.7157 0.544503 30.5733C0.638357 28.2056 0.617737 25.1633 0.623604 22.7585C0.625157 21.799 0.454732 22.4536 0.450997 22.3163C0.407773 20.3322 0.589056 18.3259 0.249582 17.2257C1.12733 15.8501 0.164445 16.0293 0.340158 13.1933C0.35437 12.9699 0.769453 12.6857 0.830391 13.5434C0.891271 14.401 0.761523 15.7015 0.856514 16.8915C0.878806 17.1733 1.26777 18.7875 1.29133 19.0077C1.47547 20.7329 0.855182 20.9774 0.821113 21.0687C0.453451 22.1037 0.872481 24.0763 0.901435 24.5957C1.03411 26.9721 0.946873 28.9911 1.04157 30.9787C1.10278 32.2786 1.50909 32.4058 1.49665 33.4266C1.45554 36.8199 0.888737 38.0044 1.38019 41.202C1.48501 41.8876 1.9291 41.2062 1.5799 43.663C1.55789 43.8174 1.23844 45.6414 1.4405 46.6952C1.46597 46.8276 1.59539 46.8234 1.60627 46.9979C1.67659 48.1678 1.57349 48.948 1.62287 50.2223C1.67225 51.4966 1.74587 53.0288 1.70197 54.4838C1.67572 55.3606 1.43459 56.4856 1.37555 56.9053C1.20549 58.0905 1.48432 59.3613 1.27839 60.0955C1.07141 60.8359 0.757091 59.3884 0.62336 61.33C0.959608 61.4019 1.30473 61.5671 1.64289 61.6827C1.64259 61.7885 1.64224 61.8943 1.64183 62L0.443359 60.8015C4.58929 60.8176 8.6737 60.9207 12.8367 60.9062C13.366 60.904 12.8247 60.7232 13.3921 60.7162C15.7859 60.6875 17.8768 60.8164 20.3593 60.7651C22.281 60.7247 24.3882 60.5333 26.3975 60.485C27.6249 60.8698 30.6066 60.7392 32.7725 60.7743C33.5314 60.7865 33.4806 60.8893 34.0202 60.9228C36.0559 61.0468 35.102 60.7068 35.66 60.6533C38.0544 60.4249 38.2593 61.1945 41.0823 61.1755C41.2318 61.1747 43.0599 60.7645 43.3117 60.7389C44.9115 60.5724 43.5765 60.8817 44.5778 60.912C46.4058 60.9674 47.6762 61.0654 49.821 60.9452C50.4464 60.9097 51.9466 60.654 53.1612 60.8517C53.3209 60.8776 53.2327 61.0132 53.3612 61.0212C55.689 61.1535 55.7503 60.7275 57.0804 60.5832C58.4109 60.4389 60.4657 60.733 60.8839 60.8178C61.9779 61.0371 60.0456 60.9115 59.9863 60.933C59.2904 61.1891 60.789 61.145 61.9341 61.1667C62.0999 61.5844 63.7013 61.5594 63.1212 61.1874C63.0552 61.1468 62.164 61.1858 61.9341 61.1667C62.9393 60.7568 64.6992 60.7043 66.643 61.0873C67.5529 61.2669 66.6927 61.4762 69.4568 61.3996C70.7112 61.365 70.2265 61.0774 71.3335 60.999C73.8626 60.82 77.149 61.0884 79.7564 61.0461C80.7027 61.0307 79.7809 60.8733 80.4276 60.8574C82.1439 60.8146 83.6576 60.9328 85.3813 60.8722C85.5374 60.8666 85.1558 60.7017 85.6919 60.6996C89.7555 60.6805 93.2938 60.7861 97.5365 60.789C99.5865 60.7903 103.251 60.6994 105.375 60.7177C109.056 60.7484 113.583 60.9881 116.728 60.9299C118.778 60.8926 118.328 60.7277 119.207 60.6154C120.903 60.3977 123.904 60.7877 124.308 60.8481C124.32 60.8501 122.556 60.8889 123.497 60.9736C124.045 61.1499 124.288 60.8488 124.308 60.8481C124.573 60.8871 128.099 60.9245 128.799 60.893C129.179 60.8758 128.966 60.7196 129.164 60.7136C133.878 60.5738 138.6 60.5341 143.381 60.6071C143.465 60.6103 143.338 60.785 143.536 60.7902C146.304 60.8679 148.076 60.6542 150.358 60.5273C152.641 60.4004 154.451 60.4429 155.802 60.7429C157.524 60.7051 159.994 60.8377 161.416 60.9181C162.838 60.9986 163.036 60.6585 163.161 60.6518C167.063 60.4366 169.318 60.6313 173.366 60.6616C175.29 60.6765 179.108 60.6272 181.191 60.59C182.838 60.5601 183.83 60.6398 185.348 60.5888C185.553 60.582 185.345 60.4306 185.408 60.4247C187.102 60.2436 186.288 60.6138 186.637 60.6799C187.905 60.9203 188.688 61.0483 190.857 60.9352C191.357 60.9093 192.814 60.3763 193.726 60.3452C194.911 60.3056 194.464 60.4967 195.705 60.4504C195.811 60.4466 195.789 60.3287 196.555 60.3339C200.111 60.3565 203.988 60.4251 207.684 60.4133C208.189 60.4121 207.542 60.2252 208.271 60.2204C211.693 60.1982 215.444 60.2052 218.778 60.2927C219.599 60.3148 219.085 60.4457 219.263 60.4846C220.356 60.7197 221.907 60.378 222.163 60.3715C228.268 60.2073 232.94 60.5165 239.162 60.3693C239.5 60.3607 242.107 59.9944 243.271 60.3085C243.35 60.3294 244.501 60.6508 245.518 60.4311C245.582 60.4173 244.865 60.2519 246.116 60.2687C247.367 60.2856 249.381 60.1751 251.101 60.3569C251.646 60.4141 252.933 60.7348 254.557 60.4792C254.663 60.4613 257.171 59.8834 258.066 60.2822C258.211 60.3478 258.059 60.7697 259.998 60.5534C260.368 60.5115 259.696 60.4173 260.672 60.3586C262.167 60.268 264.148 60.381 265.986 60.1931C266.307 60.1598 267.671 59.8734 268.766 60.0908C268.937 60.1248 268.611 60.2657 269.189 60.2814C271.938 60.357 274.816 60.2628 277.607 60.3603C278.595 60.3945 278.09 60.6223 279.12 60.6833C280.151 60.7443 282.227 60.803 283.306 60.6989C284.384 60.5948 283.206 60.2319 284.822 60.2028C285.029 60.1991 285.236 60.1957 285.443 60.1925L283.636 62C283.532 55.1867 283.734 48.4321 283.764 41.6251C283.769 40.5848 283.639 41.4472 283.636 39.9142C283.627 34.2621 283.505 24.5037 283.781 19.5993C284.002 15.6696 284.17 20.6148 284.26 17.612C284.303 16.163 283.881 14.5953 283.868 14.2455C283.733 10.8283 283.92 8.45344 283.862 5.37778C283.851 4.74265 283.68 5.36559 283.671 4.82503C283.656 3.89572 283.668 2.94255 283.682 2L285.443 3.76129C284.513 3.74773 283.593 3.73239 282.717 3.73932C281.926 3.74598 282.072 3.8766 281.343 3.86652C279.601 3.8439 278.059 3.78899 276.361 3.66657C276.206 3.65541 277.25 3.49293 275.96 3.48688C273.874 3.47756 271.283 3.35679 268.883 3.48151C268.17 3.51903 268.142 3.81756 266.611 3.61139C266.29 3.56833 266.7 3.20986 264.916 3.5196C264.616 3.57107 261.62 3.98884 260.149 3.71955C259.761 3.64867 258.771 3.35533 257.914 3.40143C257.798 3.40879 258.264 3.56914 257.554 3.58478C255.052 3.63711 252.43 3.62001 249.86 3.67023C249.174 3.68396 250.196 3.84989 249.173 3.86505C246.36 3.90699 242.848 3.86475 240.097 3.81281C239.083 3.79334 239.784 3.65589 239.711 3.64093C238.524 3.39763 237.822 3.72603 237.428 3.74518C234.979 3.85984 233.114 3.70558 230.856 3.7464C230.233 3.75725 230.675 3.91384 230.551 3.9278C229.264 4.06422 230.223 3.78301 229.408 3.75202C227.127 3.66425 224.585 3.67683 222.278 3.69684C221.431 3.70442 222.383 3.88598 221.622 3.89069C217.122 3.92198 212.443 3.9046 208.051 3.80451C207.224 3.78533 207.744 3.64552 207.572 3.61359C206.384 3.39018 204.643 3.69491 204.242 3.72394C202.421 3.85648 201.713 3.73285 200.105 3.75592C192.246 3.87082 182.543 3.78893 175.126 3.73835C165.459 3.67324 157.959 3.54023 148.741 3.57477C148.155 3.57679 148.746 3.76278 148.241 3.76691C141.721 3.81175 135.302 3.73907 128.768 3.79279C128.232 3.79687 129.005 3.97319 128.144 3.98566C126.379 4.01248 124.143 4.0029 122.359 3.9466C121.489 3.91947 122.656 3.76817 121.78 3.74396C119.74 3.68724 117.553 3.67468 115.457 3.70295C114.566 3.71536 115.911 3.89569 114.752 3.89777C106.856 3.91566 99.1021 3.94672 91.1233 3.7132C90.5763 3.69716 90.0963 3.33066 88.9333 3.40094C88.8457 3.50266 88.8505 3.6223 88.8122 3.73102C77.3182 3.78958 65.9416 3.66253 54.4153 3.64289C53.9294 3.6421 54.7692 3.83629 53.8284 3.83576C48.3829 3.83289 43.095 3.88668 37.5249 3.69367C36.9722 3.67479 37.2557 3.33316 35.6271 3.38483C35.3398 3.39426 32.8869 3.43982 32.2527 3.51398C32.1665 3.52517 32.6141 3.68463 31.8236 3.68927C27.2302 3.71349 22.4166 3.67708 17.8311 3.57965C17.0911 3.56363 17.8792 3.39381 17.3521 3.38092C13.6131 3.29078 9.54611 3.41987 5.97332 3.26569C3.58181 3.16188 4.46722 2.86835 3.1964 2.57941C3.01666 2.53865 1.53577 2.53219 1.45919 2.36408C1.26258 1.94136 1.97988 1.47848 1.68555 1.0279C1.62337 0.930854 -0.359929 1.03538 0.81431 0.800855C0.896343 0.785159 2.33424 0.70732 2.6884 0.62776C2.93497 0.572753 2.49064 0.401788 2.99373 0.331374C3.49678 0.261026 4.04956 0.404338 4.88361 0.321608C5.71728 0.237855 5.35071 0.0433627 7.01565 0.0203396ZM167.817 61.2778C169.134 61.4411 169.328 60.8429 167.904 60.986C167.835 60.9936 167.75 61.2698 167.817 61.2778ZM8.54365 61.3722C10.2647 61.6361 11.4423 61.2481 10.2282 61.0444C9.01432 60.8408 8.01931 61.2923 8.54365 61.3722ZM0.878486 52.2543C0.670458 54.2657 1.51871 54.5824 1.34723 52.4281C1.33754 52.3028 0.890565 52.1368 0.878486 52.2543ZM9.08978 2.49714C9.07161 2.48919 8.00708 2.48145 7.98164 2.48933C7.41481 2.67931 9.54341 2.69466 9.08978 2.49714ZM0.66877 34.5453C0.554025 35.1731 0.686485 36.9811 0.82917 36.2009C0.943957 35.5728 0.811506 33.7633 0.66877 34.5453ZM236.488 61.9162C236.508 61.9251 237.271 61.9331 237.256 61.8827C237.204 61.7205 236.142 61.7663 236.488 61.9162ZM0.659005 4.44666C0.627075 8.89359 -0.0736252 11.5898 0.00544217 6.74716C0.0197477 5.8702 0.22889 8.63721 0.292062 7.52101C0.407152 5.47863 -0.0328024 4.12246 0.202951 2.03825C0.246102 1.66095 0.662383 4.19299 0.659981 4.45456C0.659656 4.45193 0.65933 4.4493 0.659005 4.44666ZM168.576 61.9963C168.602 62.0042 169.658 62.0117 169.684 62.0038C170.256 61.8139 168.127 61.7987 168.576 61.9963ZM281.021 62.2861C281.079 62.3029 283.531 62.3187 283.611 62.3032C284.89 61.9926 279.933 61.9598 281.021 62.2861ZM97.4233 62.434C96.2706 62.6251 94.8915 62.6476 93.9726 62.4076C95.1182 62.4204 96.2715 62.4223 97.4233 62.434Z" fill="#E8E8E8"/>
</svg>
