<svg width="294" height="63" viewBox="0 0 294 63" fill="none" xmlns="http://www.w3.org/2000/svg">
<path d="M7.149 0.0203396C11.094 -0.0317659 16.2653 0.0239475 20.1954 0.100417C21.4271 0.124135 20.8034 0.230151 21.6537 0.251296C23.3166 0.292517 24.8658 0.240522 26.5091 0.289626C27.0538 0.306418 26.3758 0.474348 26.9469 0.488111C30.0762 0.562327 33.0366 0.519553 36.2067 0.55525C51.8212 0.73137 67.17 0.79441 82.9756 0.870923C88.1871 0.896008 94.5223 1.04841 99.9053 0.981762C100.534 0.973831 100.159 0.826431 100.279 0.814282C102.154 0.628299 101.53 0.925869 102.755 0.965405C107.614 1.12151 113.018 1.13508 117.694 1.0782C119.684 1.05356 117.689 0.76079 119.692 0.925122C119.832 0.936225 119.327 1.09275 119.872 1.10945C121.11 1.147 123.457 1.11902 124.416 1.13142C126.265 1.15611 126.57 1.15454 128.318 1.15632C130.708 1.16012 133.551 1.23793 136.115 1.20246C136.662 1.19443 135.937 1.03397 136.81 1.00666C137.684 0.979403 139.995 0.993009 140.774 1.03083C141.553 1.06868 141.222 1.1948 141.359 1.2237C142.494 1.4677 145.168 1.12977 145.511 1.12141C151.783 0.979013 157.161 1.17152 163.048 1.17097C167.517 1.17015 172.296 1.10659 176.548 1.11531C181.615 1.12631 185.908 1.21326 190.83 1.19831C191.349 1.19692 190.741 1.00826 191.375 1.00618C198.115 0.984222 204.809 1.00479 211.52 1.13215C212.193 1.14509 211.325 1.31074 211.998 1.33357C216.114 1.4697 222.628 1.79671 225.074 1.07551C227.862 1.10367 231.248 1.13277 233.742 1.27815C235.351 1.37172 233.789 1.55217 235.765 1.47517C236.21 1.45801 235.631 1.29998 236.299 1.2862C239.113 1.22835 242.187 1.27972 244.971 1.19807C245.537 1.18109 245.382 1.03949 245.543 1.01399C246.891 0.807483 249.136 1.14885 249.625 1.17366C253.351 1.35863 256.072 1.28584 259.543 1.29036C260.348 1.29148 259.396 1.10128 260.171 1.09553C264.191 1.06827 268.355 1.08462 272.291 1.16902C273.166 1.18825 272.361 1.35027 272.78 1.36775C274.624 1.44285 275.033 1.13683 276.803 1.20295C277.176 1.2165 276.965 1.3552 277.034 1.37043C278.098 1.60956 279.024 1.27074 279.297 1.26326C282.762 1.16105 284.977 1.51476 288.324 1.46467C288.724 1.45832 287.821 1.28282 288.947 1.27571C290.103 1.26824 291.27 1.26306 292.443 1.26017L293.179 1.25599L293.183 2C293.199 8.43586 293.146 15.0771 293.028 21.3547C293.006 22.5087 292.874 21.6849 292.858 21.7575C292.604 22.9411 292.944 23.707 292.957 24.0832C293.049 27.0518 292.764 29.8248 293.169 31.8418C293.056 41.9297 293.18 51.9804 293.046 62L293.05 62.5996L292.443 62.6031C289.976 62.5701 287.51 62.5214 285.047 62.4496C284.888 62.4454 285.172 62.2779 284.856 62.2702C281.048 62.1761 281.779 62.4365 279.259 62.7551C278.625 62.835 276.694 62.4505 276.523 62.4223C275.9 62.3184 276.546 62.0691 276.338 62.049C274.613 61.891 274.894 62.7155 272.567 62.7157C272.494 62.7144 272.8 62.5626 272.605 62.5475C271.998 62.5002 271.396 62.5605 270.803 62.5082C269.444 62.3874 268.96 61.9867 266.884 62.2199C266.622 62.2502 267.023 62.7178 264.945 62.6957C264.117 62.6865 260.451 62.6945 259.424 62.6642C258.398 62.634 259.102 62.4833 259.029 62.4767C256.264 62.2775 257.313 62.1949 255.927 61.8998C254.542 61.6059 254.926 62.3069 254.362 62.3852C253.796 62.4632 251.769 62.2988 251.271 62.2416C250.773 62.1844 251.394 62.0887 250.951 62.0563C248.015 61.8449 249.662 62.4043 248.695 62.5156C246.415 62.779 244.638 62.2591 242.551 62.2082C241.986 62.1944 242.447 62.3128 241.944 62.3239C239.951 62.3662 238.753 62.204 236.487 62.3527C236.116 62.3769 234.284 62.6895 233.097 62.4601C232.93 62.4271 233.407 62.2975 232.558 62.2685C231.289 62.2249 229.004 62.1966 227.64 62.2399C226.634 62.272 227.788 62.4854 226.521 62.4191C225.957 62.3895 227.001 62.2646 225.943 62.2194C224.891 62.1742 222.2 62.1797 221.176 62.184C220.154 62.1884 220.714 62.3503 220.631 62.3613C220.131 62.4237 218.17 62.5018 217.997 62.5016C209.254 62.5214 201.192 62.2485 192.68 62.3388C192.012 62.3456 192.457 62.5164 192.355 62.5192C190.068 62.5908 191.871 62.1368 190.274 61.9848C190.505 62.3313 189.562 62.2686 187.951 62.3066C187.174 62.3252 187.597 62.4593 187.526 62.4731C186.375 62.6769 185.574 62.4136 185.367 62.3598C184.605 62.1617 183.775 62.3958 183.256 62.2634C182.738 62.1319 183.931 61.9371 182.386 61.9396C181.953 62.0637 183.1 62.3878 181.927 62.4404C177.501 62.6391 169.24 62.3847 165.682 62.3583C162.131 62.3319 160.984 62.3548 158.914 62.31C155.177 62.2289 156.546 62.4694 154.225 62.5795C151.898 62.6896 153.029 62.0978 152.695 61.9706C152.366 61.8435 152.008 61.9744 151.599 61.9045C151.192 61.8346 152.073 61.7481 151.116 61.7219C150.157 61.6956 147.537 61.9218 147.197 62.0549C146.479 62.3367 147.66 62.6324 145.124 62.5285C144.978 62.5223 145.452 62.3667 144.893 62.351C140.458 62.2312 135.85 62.2238 131.42 62.1179C130.811 62.103 131.355 61.9299 131.001 61.9194C127.308 61.8086 128.628 62.1005 126.605 62.4247C127.059 61.9933 125.94 61.7293 123.138 61.7267C121.453 61.7251 121.743 61.9135 120.653 62.0463C120.327 62.0864 119.135 61.957 118.919 62.0456C118.206 62.3353 119.329 62.6596 116.44 62.5304C116.313 62.5243 116.717 62.3657 116.279 62.3561C113.447 62.2933 113.109 62.5963 110.048 62.633C107.649 62.6618 103.383 62.477 100.651 62.4469C100.709 61.9618 98.1289 62.0729 97.0823 62.4074C95.3096 62.3937 93.395 62.4126 91.6817 62.3664C91.092 62.3506 91.4794 62.2102 91.4051 62.195C90.2649 61.9569 89.4942 62.2823 89.1116 62.2951C84.9646 62.4191 81.5859 62.1725 77.6282 62.4135C77.4877 62.4222 77.2601 62.7591 76.2022 62.5131C76.1337 62.4962 77.4408 62.3428 75.5791 62.331C73.717 62.3191 70.2069 62.1385 67.6218 62.2946C66.9963 62.3322 65.4139 62.6057 64.144 62.392C63.9748 62.363 64.16 62.2664 63.9157 62.2126C63.1262 62.0412 62.6952 62.3818 61.7673 62.0925C60.8393 61.8031 58.9092 61.5864 56.3022 61.7861C56.2191 61.7919 55.602 62.0618 54.7822 62.0575C53.4734 62.0505 51.6155 61.9943 50.249 61.996C49.5947 61.997 50.0135 62.1646 49.8998 62.1677C45.5005 62.2616 42.3694 62.1121 37.6564 62.0473C36.7925 62.0351 34.3096 62.2637 32.6371 62.0829C30.8006 61.8851 32.6878 61.0622 28.4665 61.2582C26.7638 61.3367 24.6082 62.3807 21.5485 61.8398C15.6143 61.9738 10.1264 61.697 4.17563 61.8884C3.90803 61.8968 3.06188 62.1882 2.4327 62.1843C1.5575 62.1782 1.05225 62.0582 0.443359 62.0358L0.407779 62.036L0.407574 62C0.409082 61.9591 0.41015 61.9178 0.410714 61.8758C0.451736 59.0814 0.335218 56.5242 0.353341 53.8299C0.359926 52.807 0.500744 53.1647 0.508614 51.9446C0.516353 50.7254 0.330924 49.9123 0.42048 48.2601C0.488743 47.0122 0.867755 45.7646 0.911933 44.1082C0.538079 44.0451 0.54578 42.9075 0.447091 40.8855C0.427943 40.4969 0.297822 40.9137 0.282053 40.7298C0.214988 39.9816 0.32283 39.2891 0.249826 38.5786C0.232293 38.4058 0.104619 38.3977 0.0830787 38.2564C-0.104944 37.0549 0.182244 35.0756 0.232248 34.7356C0.422152 33.4327 0.256097 32.8238 0.330881 31.8245C0.405654 30.8268 0.499128 32.3186 0.544503 31.1531C0.638357 28.7373 0.617737 25.6332 0.623604 23.1797C0.625157 22.2007 0.454732 22.8686 0.450997 22.7285C0.407773 20.7042 0.589056 18.6571 0.249582 17.5347C1.12733 16.1311 0.164445 16.314 0.340158 13.4204C0.35437 13.1925 0.769453 12.9025 0.830391 13.7776C0.891271 14.6526 0.761523 15.9795 0.856514 17.1936C0.878806 17.4811 1.26777 19.1281 1.29133 19.3528C1.47547 21.113 0.855182 21.3624 0.821113 21.4556C0.453451 22.5116 0.872481 24.5242 0.901435 25.0542C1.03411 27.4788 0.946873 29.5387 1.04157 31.5667C1.10278 32.893 1.50909 33.0227 1.49665 34.0642C1.45554 37.5264 0.888737 38.7349 1.38019 41.9974C1.48501 42.6969 1.9291 42.0017 1.5799 44.5083C1.55789 44.6658 1.23844 46.5269 1.4405 47.6021C1.46597 47.7371 1.59539 47.7329 1.60627 47.9109C1.67659 49.1045 1.57349 49.9005 1.62287 51.2007C1.67225 52.5008 1.74587 54.0642 1.70197 55.5487C1.67572 56.4432 1.43459 57.5911 1.37555 58.0194C1.20549 59.2286 1.48432 60.5251 1.27839 61.2743C1.09407 61.947 0.824631 60.8494 0.6734 62L0.443359 61.77C0.584806 61.7886 0.760227 61.8054 0.97714 61.82C1.0505 61.4838 1.21907 61.1386 1.33701 60.8005C5.67824 60.8123 9.94975 60.921 14.3055 60.9062C14.8455 60.904 14.2933 60.7232 14.8722 60.7162C17.3146 60.6875 19.448 60.8164 21.9808 60.7651C23.9414 60.7247 26.0914 60.5333 28.1415 60.485C29.3938 60.8698 32.4359 60.7392 34.6459 60.7743C35.4201 60.7865 35.3683 60.8893 35.9189 60.9228C37.9959 61.0468 37.0226 60.7068 37.592 60.6533C40.0349 60.4249 40.244 61.1945 43.1242 61.1755C43.2768 61.1747 45.142 60.7645 45.3988 60.7389C47.0311 60.5724 45.6691 60.8817 46.6906 60.912C48.5558 60.9674 49.8519 61.0654 52.0402 60.9452C52.6783 60.9097 54.209 60.654 55.4482 60.8517C55.6112 60.8776 55.5211 61.0132 55.6523 61.0212C58.0274 61.1535 58.0898 60.7275 59.447 60.5832C60.8044 60.4389 62.9009 60.733 63.3276 60.8178C64.4438 61.0371 62.4723 60.9115 62.4118 60.933C61.7017 61.1891 63.2308 61.145 64.3991 61.1667C64.5683 61.5844 66.2022 61.5594 65.6103 61.1874C65.543 61.1468 64.6337 61.1858 64.3991 61.1667C65.4247 60.7568 67.2203 60.7043 69.2036 61.0873C70.132 61.2669 69.2543 61.4762 72.0745 61.3996C73.3543 61.365 72.8598 61.0774 73.9892 60.999C76.5697 60.82 79.9227 61.0884 82.583 61.0461C83.5485 61.0307 82.608 60.8733 83.2678 60.8574C85.019 60.8146 86.5633 60.9328 88.322 60.8722C88.4814 60.8666 88.092 60.7017 88.6389 60.6996C92.785 60.6805 96.3951 60.7861 100.724 60.789C102.815 60.7903 106.555 60.6994 108.721 60.7177C112.477 60.7484 117.096 60.9881 120.304 60.9299C122.397 60.8926 121.938 60.7277 122.834 60.6154C124.564 60.3977 127.626 60.7877 128.039 60.8481C128.051 60.8501 126.251 60.8889 127.212 60.9736C127.77 61.1499 128.018 60.8488 128.039 60.8481C128.309 60.8871 131.906 60.9245 132.62 60.893C133.008 60.8758 132.791 60.7196 132.994 60.7136C137.803 60.5738 142.62 60.5341 147.498 60.6071C147.584 60.6103 147.455 60.785 147.657 60.7902C150.481 60.8679 152.289 60.6542 154.618 60.5273C156.946 60.4004 158.793 60.4429 160.171 60.7429C161.928 60.7051 164.449 60.8377 165.9 60.9181C167.35 60.9986 167.553 60.6585 167.68 60.6518C171.661 60.4366 173.962 60.6313 178.092 60.6616C180.055 60.6765 183.95 60.6272 186.076 60.59C187.756 60.5601 188.768 60.6398 190.317 60.5888C190.526 60.582 190.314 60.4306 190.378 60.4247C192.106 60.2436 191.276 60.6138 191.633 60.6799C192.926 60.9203 193.725 61.0483 195.938 60.9352C196.448 60.9093 197.934 60.3763 198.865 60.3451C200.074 60.3056 199.618 60.4967 200.884 60.4504C200.993 60.4466 200.97 60.3287 201.752 60.3339C205.38 60.3565 209.336 60.4251 213.106 60.4133C213.621 60.4121 212.961 60.2252 213.705 60.2204C217.197 60.1982 221.024 60.2052 224.426 60.2927C225.263 60.3148 224.738 60.4457 224.92 60.4846C226.036 60.7197 227.618 60.378 227.879 60.3715C234.108 60.2073 238.875 60.5165 245.223 60.3693C245.568 60.3607 248.228 59.9944 249.415 60.3085C249.496 60.3294 250.67 60.6508 251.708 60.4311C251.773 60.4173 251.041 60.2519 252.318 60.2687C253.595 60.2856 255.649 60.1751 257.404 60.3569C257.96 60.4141 259.273 60.7348 260.931 60.4792C261.039 60.4613 263.597 59.8834 264.51 60.2822C264.658 60.3478 264.503 60.7697 266.482 60.5534C266.859 60.5115 266.173 60.4173 267.169 60.3586C268.695 60.268 270.716 60.381 272.591 60.1931C272.918 60.1598 274.31 59.8734 275.427 60.0908C275.602 60.1248 275.27 60.2657 275.86 60.2814C278.664 60.357 281.6 60.2628 284.448 60.3603C285.456 60.3945 284.941 60.6223 285.992 60.6833C287.044 60.7443 289.162 60.803 290.262 60.6989C291.363 60.5948 290.16 60.2319 291.809 60.2028C292.021 60.1991 292.232 60.1957 292.443 60.1925L290.636 62C290.532 55.0484 290.734 48.1568 290.764 41.2117C290.769 40.1503 290.639 41.0302 290.636 39.4661C290.627 33.6993 290.505 23.743 290.781 18.739C291.002 14.7296 291.17 19.7751 291.26 16.7114C291.303 15.2329 290.881 13.6335 290.868 13.2765C290.733 9.79003 290.92 7.36699 290.862 4.22892C290.851 3.58091 290.68 4.21648 290.671 3.66496C290.663 3.11586 290.663 2.5586 290.668 2L292.443 3.77582C291.086 3.76487 289.72 3.72943 288.444 3.73932C287.637 3.74598 287.786 3.8766 287.043 3.86652C285.264 3.8439 283.692 3.78899 281.959 3.66657C281.801 3.65541 282.866 3.49293 281.551 3.48688C279.422 3.47756 276.779 3.35679 274.329 3.48151C273.602 3.51903 273.574 3.81756 272.012 3.61139C271.684 3.56833 272.102 3.20986 270.282 3.5196C269.976 3.57107 266.919 3.98884 265.419 3.71955C265.023 3.64867 264.013 3.35533 263.139 3.40143C263.02 3.40879 263.495 3.56914 262.771 3.58478C260.218 3.63711 257.543 3.62001 254.921 3.67023C254.22 3.68396 255.263 3.84989 254.22 3.86505C251.35 3.90699 247.767 3.86475 244.96 3.81281C243.925 3.79334 244.641 3.65589 244.565 3.64093C243.355 3.39763 242.639 3.72603 242.237 3.74518C239.738 3.85984 237.835 3.70558 235.531 3.7464C234.895 3.75725 235.346 3.91384 235.22 3.9278C233.907 4.06422 234.885 3.78301 234.054 3.75202C231.727 3.66425 229.132 3.67683 226.779 3.69684C225.914 3.70442 226.886 3.88598 226.11 3.89069C221.518 3.92198 216.745 3.9046 212.263 3.80451C211.42 3.78533 211.951 3.64552 211.775 3.61359C210.563 3.39018 208.786 3.69491 208.377 3.72394C206.519 3.85648 205.797 3.73285 204.156 3.75592C196.138 3.87082 186.238 3.78893 178.67 3.73835C168.808 3.67324 161.155 3.54023 151.75 3.57477C151.152 3.57679 151.755 3.76278 151.24 3.76691C144.587 3.81175 138.038 3.73907 131.372 3.79279C130.825 3.79687 131.613 3.97319 130.735 3.98566C128.935 4.01248 126.653 4.0029 124.833 3.9466C123.944 3.91947 125.136 3.76817 124.242 3.74396C122.16 3.68724 119.929 3.67468 117.791 3.70295C116.881 3.71536 118.254 3.89569 117.071 3.89777C109.016 3.91566 101.104 3.94672 92.9631 3.7132C92.4051 3.69716 91.9154 3.33066 90.7288 3.40094C90.6394 3.50266 90.6442 3.6223 90.6052 3.73102C78.878 3.78958 67.2705 3.66253 55.5104 3.64289C55.0146 3.6421 55.8715 3.83629 54.9115 3.83576C49.3556 3.83289 43.9604 3.88668 38.2772 3.69367C37.7134 3.67479 38.0027 3.33316 36.341 3.38483C36.0479 3.39426 33.5452 3.43982 32.8981 3.51398C32.8102 3.52517 33.2668 3.68463 32.4603 3.68927C27.7737 3.71349 22.8624 3.67708 18.1839 3.57965C17.4289 3.56363 18.233 3.39381 17.6952 3.38092C13.8803 3.29078 9.73081 3.41987 6.08552 3.26569C3.64549 3.16188 4.54886 2.86835 3.25226 2.57941C3.06887 2.53865 1.55793 2.53219 1.4798 2.36408C1.2792 1.94136 2.01105 1.47848 1.71075 1.0279C1.64731 0.930854 -0.376228 1.03538 0.821836 0.800855C0.905534 0.785159 2.37261 0.70732 2.73395 0.62776C2.98553 0.572753 2.53218 0.401788 3.04547 0.331374C3.55873 0.261026 4.12273 0.404338 4.9737 0.321608C5.82429 0.237854 5.45028 0.0433626 7.149 0.0203396ZM172.431 61.2778C173.774 61.4411 173.972 60.8429 172.519 60.986C172.449 60.9936 172.362 61.2698 172.431 61.2778ZM9.92538 61.3722C11.6813 61.6361 12.8829 61.2481 11.6441 61.0444C10.4056 60.8408 9.39045 61.2923 9.92538 61.3722ZM0.878486 53.274C0.670458 55.3262 1.51871 55.6492 1.34723 53.4512C1.33754 53.3234 0.890565 53.154 0.878486 53.274ZM9.26521 2.49714C9.24667 2.48919 8.16055 2.48145 8.13459 2.48933C7.55625 2.67931 9.72806 2.69466 9.26521 2.49714ZM0.66877 35.2056C0.554025 35.8462 0.686485 37.6908 0.82917 36.8948C0.943956 36.254 0.811506 34.4077 0.66877 35.2056ZM242.494 61.9162C242.515 61.9251 243.294 61.9331 243.278 61.8827C243.226 61.7205 242.142 61.7663 242.494 61.9162ZM0.659005 4.4963C0.627075 9.03347 -0.0736251 11.7844 0.00544217 6.84348C0.0197477 5.94873 0.22889 8.77188 0.292062 7.63303C0.407152 5.54921 -0.0328024 4.16552 0.202951 2.03902C0.246102 1.65407 0.662383 4.23748 0.659981 4.50436C0.659656 4.50168 0.65933 4.49898 0.659005 4.4963ZM173.204 61.9963C173.231 62.0042 174.309 62.0117 174.335 62.0038C174.919 61.8139 172.747 61.7987 173.204 61.9963ZM287.931 62.2861C287.991 62.3029 290.492 62.3187 290.574 62.3032C291.879 61.9926 286.821 61.9598 287.931 62.2861ZM100.608 62.434C99.4323 62.6251 98.0253 62.6476 97.0877 62.4076C98.2565 62.4204 99.4332 62.4223 100.608 62.434Z" fill="#2D2D2D"/>
</svg>
