<svg width="261" height="66" viewBox="0 0 261 66" fill="none" xmlns="http://www.w3.org/2000/svg">
<path d="M31.8113 7.93428C31.0706 7.98009 30.0219 7.79943 29.1475 7.80079C25.4846 7.80439 24.1257 7.68754 20.811 7.65503C15.8962 7.60661 1.31759 8.05578 1.2993 6.70425C1.2993 6.70422 1.2993 6.70418 1.2993 6.70415C1.29917 6.6909 1.30032 6.67747 1.30301 6.66387C1.35067 6.40572 2.58728 6.10817 2.76744 5.81453C2.94733 5.52079 2.78456 3.64201 4.54474 3.51291C7.097 3.3397 13.2305 3.7406 14.5924 3.70116C15.5236 3.67408 16.6678 3.4879 17.8583 3.44175C21.6966 3.29296 23.7074 3.39133 27.1605 2.88103C28.5475 3.1074 29.9345 3.33377 31.3214 3.56014C33.1253 3.42271 35.8658 3.70917 36.9624 3.67684C37.862 3.65028 38.3868 3.44975 39.3245 3.42831C40.3762 3.40318 41.9943 3.59063 43.9072 3.53378C47.0431 3.44155 47.5947 2.92929 49.4757 2.84021C51.4264 2.74798 54.4652 2.98209 56.953 2.7714C57.2646 2.71172 57.5762 2.65204 57.8877 2.59236C57.6623 2.46973 57.4369 2.3471 57.2114 2.22447C58.4649 2.14936 59.0077 2.3996 60.1603 2.38897C61.5164 2.3766 62.205 2.12339 63.1175 2.11241C63.865 2.10363 64.8811 2.28586 65.8502 2.26074C67.2631 2.22512 66.9503 1.94669 67.71 1.88374C68.0131 1.85918 73.6203 1.62884 73.9367 1.62239C76.3433 1.57932 76.558 1.96325 78.4776 1.9716C83.8016 1.99321 89.2614 1.60823 94.1834 1.4248C96.3812 1.3428 98.6754 1.33484 100.868 1.3676C97.4287 2.40314 105.08 3.07201 102.202 1.56123C104.644 1.74919 106.368 1.30817 108.681 1.34818C110.177 1.37446 111.215 1.57546 113.35 1.5415C117.139 1.47988 121.275 0.814495 122.38 1.9033C126.825 1.64979 130.683 1.99888 132.273 1.00366C133.419 0.928941 136.366 1.47007 137.654 1.53181C138.871 1.5899 148.21 1.72798 149.737 1.72234C151.264 1.7167 153.938 1.69713 155.223 1.59462C156.837 1.46745 157.953 0.442409 160.846 1.58521C164.189 1.44526 165.382 1.46324 168.494 1.55917C169.058 1.57651 169.124 1.75099 169.453 1.74679C170.131 1.73779 171.282 1.59292 172.492 1.56106C174.481 1.50879 175.622 1.86265 175.393 1.3021C176.703 1.19022 178.014 1.07834 179.324 0.966463C179.786 1.06911 180.247 1.17176 180.709 1.27441C181.409 1.14659 182.108 1.01876 182.808 0.890934C181.995 1.71727 186.925 1.17059 185.316 0.72398C187.861 0.858927 190.406 0.993874 192.951 1.12882C192.609 2.06026 198.536 1.16169 198.03 0.664435C198.321 0.661307 198.612 0.658178 198.903 0.65505C201.453 0.867568 203.79 0.635065 206.897 0.759203C210.004 0.883337 209.714 0.977441 210.663 1.39118C211.394 1.35707 212.124 1.32296 212.854 1.28886C216.672 0.0694026 216.022 2.10165 222.574 1.11814C224.682 1.82476 229.847 1.37037 233.272 1.10219C233.67 1.07103 233.675 0.928378 234.206 0.877372C235.503 0.754425 238.82 0.893706 238.701 0.435376C239.85 0.553198 240.999 0.671021 242.148 0.788844C243.085 0.69279 244.021 0.596737 244.958 0.500683C244.951 0.357204 244.945 0.213724 244.938 0.0702448C246.833 0.53441 249.797 0.307028 251.263 0.404577C251.554 0.424423 251.62 0.621598 252.526 0.663597C253.585 0.713667 255.556 0.62891 256.818 0.674039C257.297 0.451933 257.776 0.229828 258.256 0.00772178L260.386 -5.96046e-06L260.201 2.08524C260.204 2.09361 260.207 2.102 260.21 2.11038C260.151 4.36791 259.512 5.11258 259.363 6.42918C259.336 6.66629 259.035 11.0061 259.029 11.2407C258.975 13.1613 259.51 12.6582 258.968 18.1822C258.871 19.1659 258.638 19.9492 258.561 20.8391C258.424 22.4111 258.436 27.1815 258.763 27.5824C258.166 29.455 257.945 34.5741 257.697 36.0675C257.622 36.5182 257.33 36.5981 257.159 37.9882C257.02 39.1151 257.018 42.0453 256.866 43.4764C256.705 44.9955 256.423 45.5202 256.352 46.201C256.286 46.8441 256.432 47.4535 256.361 48.3315C256.138 51.0723 255.632 53.5302 255.455 55.6964C255.236 58.3655 255.459 60.8024 255.559 63.0991L255.386 65.0541L253.464 65.0355C253.067 65.0842 252.675 65.1288 252.285 65.1664C251.633 65.1293 250.991 65.0064 250.307 65.0053C241.841 64.9873 232.29 64.8818 223.799 64.7592C219.857 64.7029 210.054 63.9257 212.67 65.2225C211.3 65.4496 201.34 64.9267 199.445 64.9189C197.551 64.9111 196.049 65.1436 194.56 65.147C190.067 65.1571 186.903 64.9896 181.434 65.1921C180.022 65.245 178.508 65.5205 177.672 65.5173C176.664 65.5128 175.58 65.2463 174.275 65.2294C171.163 65.1912 165.365 65.2788 162.38 65.2327C161.835 65.2237 161.644 64.9898 160.864 64.9167C157.829 64.631 154.426 64.6558 155.028 65.4026C151.138 64.9786 147.539 65.3654 143.933 65.3891C136.31 65.4375 122.423 65.2631 115.781 65.577C111.594 65.7749 111.701 66.1099 105.535 65.8209C104.167 65.7567 102.804 65.6703 101.144 65.5938C97.2532 65.4138 93.6836 64.795 90.7179 65.5407C86.3964 65.3473 82.9547 65.4845 79.7484 64.8467C79.3704 64.9997 78.9924 65.1526 78.6144 65.3056C78.0846 65.3094 77.5548 65.3132 77.025 65.3169C76.8597 65.1711 76.6945 65.0252 76.5292 64.8793C72.7337 64.84 67.9184 65.4396 64.7057 65.4352C59.3191 65.4285 45.4452 65.1956 40.3375 64.9987C37.6258 64.8942 37.4799 65.2066 35.9274 64.5644C35.3209 64.6091 34.7144 64.6537 34.1078 64.6984C33.7283 64.839 33.3487 64.9797 32.9691 65.1203C29.4901 65.1259 25.3638 64.9075 22.0495 64.9097C18.0307 64.9127 12.6705 65.0851 7.74666 65.1252L5.76637 65.1061L5.56873 63.1781C5.2725 60.7202 5.02181 58.3682 4.87996 56.3424C4.77401 54.824 4.85013 52.9027 4.68074 51.4232C4.43447 49.2699 3.89745 48.8002 3.58167 46.068C3.0383 41.359 2.609 32.5239 2.06667 28.0763C1.9059 26.7552 1.65869 26.1582 1.53717 25.2472C1.02571 21.4274 0.687283 18.2822 0.000116348 14.6416C0.0158366 10.6479 0.645627 10.9221 1.10537 9.63331C1.45194 8.65684 2.17726 5.70052 2.52658 5.25319C2.77201 4.93897 3.24726 5.95595 3.50786 5.52498C4.28178 10.2208 4.2363 12.2352 4.23763 16.1186C5.04987 23.1993 5.86212 30.2801 6.67437 37.3608C6.58015 38.0239 6.48594 38.687 6.39172 39.3501C6.39136 39.3501 6.391 39.3501 6.39063 39.3502C6.50378 42.0918 7.06214 43.1964 7.32418 44.6524C8.18023 49.4085 9.02052 55.7693 9.82091 62.7007L7.74666 60.8463C21.2185 60.8037 36.7875 61.1461 47.0368 61.2157C50.3894 61.2382 61.2951 61.0124 63.5954 61.2846C64.191 61.3555 64.3567 61.6139 64.9904 61.6252C70.6515 61.4715 76.3125 61.3178 81.9736 61.1641C93.615 61.5657 105.65 61.234 117.38 61.1722C149.116 61.0046 180.536 60.8008 211.752 60.8627C217.785 60.8751 225.441 60.6815 231.347 60.8063C233.812 60.8581 234.839 61.2731 238.078 60.9638C238.112 61.0756 238.146 61.1874 238.18 61.2992C241.006 61.1642 242.811 60.9098 245.98 60.884C247.562 60.8713 250.689 60.8603 253.464 60.8623L251.399 62.7705C251.55 60.873 251.694 59.1412 251.787 58.1862C251.905 56.9688 252.077 57.4394 252.166 56.3029C252.316 54.3569 252.357 50.1768 252.569 47.4918C252.761 45.0596 253.325 40.9782 253.438 39.1054C253.846 32.3613 254.07 24.9977 254.732 17.8286C254.915 15.8483 255.387 13.3197 255.428 12.6983C255.508 11.4843 255.275 11.1023 255.305 10.2851C255.395 7.89895 255.705 4.76141 256.015 1.75459L258.311 4.20695C256.076 4.18301 253.911 4.15216 252.181 4.16983C238.924 4.30523 224.883 4.60641 211.683 4.73318C203.343 4.81346 189.486 5.04363 181.785 4.94785C180.124 4.92713 180.563 4.63297 179.169 4.65147C177.623 4.67204 176.789 4.8779 176.067 4.90322C171.068 5.07979 160.033 5.4231 155.31 5.28667C154.41 5.26038 153.755 5.04315 153.217 5.05111C152.944 5.05473 152.331 5.21705 151.475 5.24415C143.924 5.48384 138.416 5.46701 131.014 5.51235C116.838 5.60033 100.418 6.10503 85.5247 6.14741C82.28 6.15671 80.0491 5.73944 79.593 5.74999C78.5919 5.77229 77.9551 6.0813 75.9284 6.18244C69.1899 6.51588 60.1062 6.31567 53.6959 6.55141C50.5289 6.66766 46.1807 7.1069 43.0642 7.23268C40.5751 7.33319 34.6926 7.26157 33.5913 7.4437C32.9211 7.5538 32.6148 7.88293 31.8113 7.93428ZM115.628 1.76215C115.191 2.28766 119.848 1.79397 118.095 1.53824C117.7 1.48066 115.741 1.62575 115.628 1.76215ZM238.977 64.0953C239.019 64.2437 239.062 64.3921 239.105 64.5406C239.717 64.4788 240.329 64.417 240.941 64.3553C240.597 64.266 240.253 64.1768 239.909 64.0876C239.598 64.0901 239.288 64.0927 238.977 64.0953Z" fill="#2D2D2D"/>
</svg>
