<svg width="163" height="66" viewBox="0 0 163 66" fill="none" xmlns="http://www.w3.org/2000/svg">
<g filter="url(#filter0_dd_223_457)">
<path d="M4.00369 21.9102C3.97371 21.4239 4.13584 20.7375 4.14438 20.1639C4.18187 17.7609 4.29426 16.8704 4.358 14.6963C4.45268 11.4725 4.23959 1.90478 5.36597 1.90454C5.366 1.90454 5.36602 1.90454 5.36605 1.90454C5.3771 1.90455 5.38827 1.90547 5.39957 1.90732C5.61416 1.94085 5.84842 2.75463 6.0911 2.87541C6.33388 2.99597 7.90119 2.90556 7.9893 4.06138C8.10541 5.73724 7.70355 9.75736 7.72135 10.6512C7.73363 11.2622 7.87611 12.0145 7.90141 12.7959C7.98295 15.3152 7.87875 16.6334 8.26579 18.9032C8.06183 19.8111 7.85787 20.719 7.65391 21.6269C7.74848 22.8115 7.47949 24.6068 7.4943 25.3265C7.50649 25.9169 7.66777 26.2629 7.67527 26.8782C7.68459 27.5683 7.5105 28.6282 7.53672 29.8836C7.5789 31.9416 7.99965 32.3079 8.05308 33.5427C8.10837 34.8232 7.8797 36.8146 8.02775 38.4485C8.07404 38.6534 8.12032 38.8583 8.16661 39.0632C8.27128 38.9164 8.37596 38.7696 8.48063 38.6228C8.52936 39.4457 8.31484 39.7996 8.31096 40.5558C8.30627 41.4456 8.50965 41.8995 8.50871 42.4982C8.50776 42.9887 8.34468 43.6537 8.3549 44.2896C8.36896 45.2168 8.60442 45.014 8.64848 45.513C8.66559 45.712 8.79553 49.3924 8.79741 49.6001C8.80669 51.1792 8.4844 51.3167 8.45622 52.5759C8.4319 53.6809 8.44135 54.7952 8.46874 55.9045L6.5 53.9358C8.89693 53.8766 11.271 53.7336 13.4794 53.6663C14.9219 53.6223 16.427 53.641 17.8653 53.6926C15.5998 54.5174 20.6135 55.1594 18.7385 53.8687C20.3388 54.0523 21.4734 53.7039 22.9906 53.7628C23.9718 53.8012 24.6509 53.9802 26.052 53.9755C28.5381 53.966 31.2575 53.4573 31.9725 54.3768C34.891 54.2147 37.4187 54.5482 38.4705 53.7365C39.2231 53.6869 41.1517 54.1704 41.9957 54.2361C42.794 54.298 48.9189 54.5163 49.9209 54.5285C50.9229 54.5406 52.6769 54.5539 53.5209 54.4827C54.5811 54.3946 55.322 53.5528 57.2095 54.537C59.4043 54.4574 60.1862 54.4855 62.2274 54.5999C62.5969 54.6206 62.6387 54.7667 62.8546 54.7668C63.2994 54.7668 64.056 54.6588 64.8499 54.6456C66.1554 54.6241 66.9005 54.9316 66.7549 54.4619C67.6156 54.3832 68.4763 54.3045 69.337 54.2257C69.639 54.3164 69.9409 54.407 70.2428 54.4976C70.703 54.3989 71.1632 54.3001 71.6234 54.2013C71.0829 54.8809 74.3216 54.4799 73.27 54.0899C74.9385 54.2305 76.607 54.3711 78.2754 54.5117C78.0426 55.284 81.9388 54.6008 81.6108 54.1809C81.8017 54.1815 81.9926 54.1821 82.1835 54.1827C83.8549 54.388 85.3898 54.2201 87.427 54.3579C89.4641 54.4957 89.2729 54.5709 89.8924 54.9261C90.3718 54.9058 90.8511 54.8854 91.3305 54.8651C93.8459 53.8912 93.4013 55.5774 97.7086 54.8303C99.0848 55.4424 102.477 55.1209 104.726 54.9353C104.988 54.9137 104.993 54.7949 105.341 54.7583C106.193 54.6702 108.368 54.8229 108.294 54.4397C109.046 54.5505 109.799 54.6614 110.552 54.7723C111.167 54.7026 111.783 54.6329 112.398 54.5633C112.395 54.4436 112.392 54.324 112.389 54.2044C113.628 54.6121 115.574 54.4554 116.535 54.5529C116.726 54.5726 116.767 54.7377 117.361 54.7827C118.056 54.8361 119.349 54.7873 120.177 54.8388C120.498 54.656 120.82 54.4732 121.142 54.2904C122.621 54.1913 123.141 54.6738 124.01 54.7113C124.167 54.7178 127.021 54.6831 127.174 54.6728C128.433 54.5912 128.077 54.1801 131.718 54.2681C132.366 54.2841 132.89 54.4263 133.476 54.432C134.511 54.4423 137.631 54.1198 137.876 53.8217C139.132 54.1947 142.491 54.0422 143.481 54.15C143.779 54.1832 143.847 54.4208 144.765 54.4714C145.509 54.5126 147.426 54.3224 148.369 54.3542C149.371 54.3889 149.729 54.5885 150.178 54.6026C150.602 54.6157 150.993 54.4546 151.571 54.4555C153.375 54.4611 155.009 54.7205 156.435 54.7253C156.456 54.7254 156.478 54.7254 156.5 54.7254L155.321 55.9045C155.318 53.8692 154.849 52.0678 154.639 50.3606C154.67 49.9324 154.773 49.5116 154.774 49.0626C154.789 43.5081 154.876 37.2424 154.979 31.6714C155.026 29.0851 155.673 22.6537 154.593 24.3703C154.403 23.4715 154.839 16.9364 154.846 15.6934C154.852 14.4507 154.658 13.4655 154.655 12.4887C154.647 9.54097 154.787 7.46524 154.618 3.87718C154.585 3.18586 154.449 2.45769 154.383 1.90454L156.5 4.02153C156.312 4.04397 156.144 4.05828 156.004 4.0576C155.343 4.05385 154.632 3.83183 153.775 3.81773C151.734 3.78586 147.93 3.85889 145.972 3.82048C145.614 3.81298 145.489 3.61804 144.977 3.55711C142.986 3.31904 140.753 3.33969 141.148 3.96208C138.596 3.60873 136.235 3.93104 133.869 3.95079C128.867 3.99109 119.757 3.84582 115.399 4.10734C112.652 4.27232 112.722 4.55147 108.677 4.31059C107.779 4.25717 106.885 4.18511 105.796 4.12138C103.244 3.97141 100.902 3.45572 98.9559 4.07713C96.1207 3.91597 93.8627 4.03026 91.7591 3.49882C91.5111 3.62628 91.2632 3.75375 91.0152 3.88121C90.6676 3.88436 90.32 3.88751 89.9724 3.89067C89.8639 3.76911 89.7555 3.64754 89.6471 3.52598C87.157 3.49325 83.9978 3.99288 81.89 3.98924C78.356 3.98362 69.2537 3.78951 65.9027 3.62547C64.1236 3.53836 64.0279 3.79872 63.0093 3.26353C62.6114 3.30076 62.2135 3.33799 61.8156 3.37522C61.5665 3.49241 61.3175 3.6096 61.0685 3.72679C58.786 3.73147 56.0788 3.54945 53.9044 3.55131C49.9422 3.55506 43.9924 3.87759 40.0135 3.66575C39.0159 3.61233 37.7687 3.37067 36.7918 3.37339C35.3699 3.37714 35.0243 3.77819 33.2198 3.78569C30.1099 3.79787 24.3182 3.33198 21.3787 3.3676C20.5057 3.37791 20.0983 3.52714 19.4955 3.54307C16.9676 3.6115 14.8923 3.59935 12.4684 3.82994C9.86571 3.44562 10.0905 2.94956 9.28397 2.44901C8.67269 2.07123 6.79833 1.19571 6.53225 0.864843C6.34535 0.632388 7.04318 0.333361 6.78128 0.0774876C9.89948 -0.126851 11.2095 0.0980988 13.7415 0.458043C18.4174 0.443699 23.0934 0.429356 27.7693 0.415013C28.1947 0.554682 28.6202 0.694351 29.0456 0.83402C29.0456 0.834325 29.0456 0.83463 29.0456 0.834936C30.8413 0.996123 31.6024 0.636431 32.5708 0.554784C41.8424 -0.226974 60.0909 0.384885 70.2979 0.472996C72.4975 0.491736 79.6524 0.303532 81.1616 0.530369C81.5523 0.589446 81.661 0.804811 82.0768 0.814184C85.7909 0.686111 89.5049 0.558039 93.219 0.429966C100.857 0.7646 108.753 0.488235 116.448 0.43668C129.879 0.346592 143.223 0.243982 156.5 0.196321L158.187 0.175647L158.208 1.90454C158.234 9.21134 158.244 16.498 158.226 23.768C158.215 27.726 158.377 32.7489 158.273 36.6238C158.23 38.241 157.884 38.9148 158.142 41.0393C158.048 41.0616 157.955 41.0839 157.862 41.1063C157.974 42.9603 158.186 44.1451 158.208 46.2237C158.226 47.9741 158.24 52.6052 158.204 54.152C158.186 54.9543 158.012 54.6554 158.013 55.4033C158.013 55.552 158.017 55.7204 158.023 55.9045L158.041 57.4085L156.5 57.4274C155.098 57.473 152.779 57.6611 151.218 57.6611C149.617 57.6611 146.918 57.4605 145.688 57.4896C141.256 57.5927 136.428 57.89 131.705 57.8103C130.4 57.7878 128.722 57.562 128.314 57.5683C127.516 57.5814 127.278 57.8008 126.742 57.8289C124.019 57.9714 119.774 57.7108 117.104 57.7005C108.407 57.6667 99.1925 57.7624 90.5321 57.7221C85.0607 57.6968 75.9682 57.7354 70.9168 57.5705C69.8274 57.5348 70.1178 57.2946 69.2032 57.2946C68.189 57.2946 67.6397 57.4569 67.1658 57.4701C63.8852 57.5619 56.6431 57.726 53.5458 57.5601C52.9558 57.5282 52.5279 57.34 52.1746 57.3407C51.9958 57.3407 51.5919 57.4691 51.0307 57.4823C46.0747 57.5985 42.4613 57.5236 37.6051 57.4795C28.3047 57.3961 17.5284 57.6351 7.75807 57.5058C7.30717 57.4998 6.88621 57.4784 6.5 57.4484L4.97529 57.4671L4.95614 55.9045C5.06778 54.4675 5.29846 53.5107 5.29551 53.2747C5.288 52.6179 5.03755 52.1974 4.97568 50.867C4.77234 46.4435 5.03959 40.4862 4.91404 36.2788C4.85218 34.2003 4.53425 31.3439 4.4639 29.2984C4.40767 27.6646 4.53238 23.8063 4.39279 23.0821C4.30846 22.6416 4.0376 22.4378 4.00369 21.9102ZM27.5446 54.1845C27.2535 54.6176 30.3123 54.2577 29.1648 54.0252C28.9064 53.9729 27.6198 54.0721 27.5446 54.1845ZM155.532 41.6292C155.408 41.6572 155.285 41.6852 155.161 41.7132C155.212 42.1148 155.264 42.5164 155.315 42.9179C155.39 42.6922 155.464 42.4665 155.538 42.2409C155.536 42.037 155.534 41.8331 155.532 41.6292Z" fill="#2D2D2D"/>
</g>
<defs>
<filter id="filter0_dd_223_457" x="0" y="0" width="162.309" height="65.8713" filterUnits="userSpaceOnUse" color-interpolation-filters="sRGB">
<feFlood flood-opacity="0" result="BackgroundImageFix"/>
<feColorMatrix in="SourceAlpha" type="matrix" values="0 0 0 0 0 0 0 0 0 0 0 0 0 0 0 0 0 0 127 0" result="hardAlpha"/>
<feOffset dy="4"/>
<feGaussianBlur stdDeviation="2"/>
<feComposite in2="hardAlpha" operator="out"/>
<feColorMatrix type="matrix" values="0 0 0 0 0 0 0 0 0 0 0 0 0 0 0 0 0 0 0.25 0"/>
<feBlend mode="normal" in2="BackgroundImageFix" result="effect1_dropShadow_223_457"/>
<feColorMatrix in="SourceAlpha" type="matrix" values="0 0 0 0 0 0 0 0 0 0 0 0 0 0 0 0 0 0 127 0" result="hardAlpha"/>
<feOffset dy="4"/>
<feGaussianBlur stdDeviation="2"/>
<feComposite in2="hardAlpha" operator="out"/>
<feColorMatrix type="matrix" values="0 0 0 0 0 0 0 0 0 0 0 0 0 0 0 0 0 0 0.25 0"/>
<feBlend mode="normal" in2="effect1_dropShadow_223_457" result="effect2_dropShadow_223_457"/>
<feBlend mode="normal" in="SourceGraphic" in2="effect2_dropShadow_223_457" result="shape"/>
</filter>
</defs>
</svg>
