<svg width="73" height="44" viewBox="0 0 73 44" fill="none" xmlns="http://www.w3.org/2000/svg">
<path d="M0.0022167 12.0281C-0.0157743 11.7635 0.0815042 11.3901 0.0866286 11.0779C0.109124 9.77042 0.176557 9.28591 0.214803 8.1029C0.271611 6.34879 0.143755 1.14283 0.81958 1.1427C0.819597 1.1427 0.819614 1.1427 0.819631 1.1427C0.826258 1.1427 0.832961 1.1432 0.839743 1.14422C0.968494 1.16246 1.10905 1.60526 1.25466 1.67096C1.40033 1.73656 2.34071 1.68738 2.39358 2.31627C2.46325 3.22814 2.22213 5.41556 2.23281 5.9019C2.24018 6.23438 2.32567 6.64373 2.34085 7.06888C2.38977 8.43967 2.32725 9.15695 2.55947 10.392C2.4371 10.886 2.31472 11.38 2.19235 11.874C2.24909 12.5185 2.08769 13.4954 2.09658 13.887C2.10389 14.2082 2.20066 14.3965 2.20516 14.7313C2.21075 15.1068 2.1063 15.6835 2.12203 16.3666C2.14734 17.4864 2.39979 17.6857 2.43185 18.3576C2.46502 19.0543 2.32782 20.1379 2.41665 21.0269C2.44442 21.1384 2.47219 21.2499 2.49996 21.3614C2.56277 21.2815 2.62557 21.2016 2.68838 21.1217C2.71762 21.5695 2.5889 21.7621 2.58657 22.1735C2.58376 22.6577 2.70579 22.9047 2.70523 23.2304C2.70466 23.4973 2.60681 23.8591 2.61294 24.2052C2.62138 24.7097 2.76265 24.5993 2.78909 24.8708C2.79936 24.9791 2.87732 26.9817 2.87844 27.0947C2.88401 27.9539 2.69064 28.0287 2.67373 28.7139C2.62761 30.6142 2.78387 32.5649 2.84292 34.3227C2.86934 35.1076 2.8581 35.9265 2.82717 36.7091C2.33227 35.4764 1.94711 38.2045 2.72152 37.1842C2.61135 38.055 2.82041 38.6724 2.78506 39.4979C2.762 40.0317 2.65462 40.4013 2.65744 41.1636C2.6588 41.4883 2.67741 41.8203 2.6973 42.1427L1.5 40.9454C2.52107 40.8824 3.44673 40.8068 3.74241 41.226C5.33039 41.1288 6.70575 41.3289 7.27807 40.8419C7.68757 40.8121 8.73695 41.1022 9.19622 41.1416C9.63057 41.1788 12.9632 41.3097 13.5084 41.3171C14.0537 41.3244 15.008 41.3323 15.4672 41.2896C16.0441 41.2367 16.4473 40.7316 17.4743 41.3222C18.6685 41.2744 19.094 41.2913 20.2046 41.3599C20.4057 41.3723 20.4284 41.46 20.5459 41.4601C20.7879 41.4601 21.1996 41.3953 21.6316 41.3874C22.3419 41.3744 22.7473 41.5589 22.6681 41.2771C23.1365 41.2299 23.6048 41.1827 24.0731 41.1354C24.2374 41.1898 24.4017 41.2442 24.566 41.2986C24.8163 41.2393 25.0667 41.18 25.3171 41.1208C25.023 41.5285 26.7853 41.2879 26.2131 41.0539C27.121 41.1383 28.0288 41.2226 28.9366 41.307C28.8099 41.7704 30.9299 41.3605 30.7515 41.1085C30.8553 41.1089 30.9592 41.1092 31.0631 41.1096C31.9725 41.2328 32.8077 41.132 33.9162 41.2147C35.0246 41.2974 34.9206 41.3425 35.2576 41.5556C35.5185 41.5434 35.7793 41.5312 36.0401 41.519C37.4088 40.9347 37.1669 41.9464 39.5106 41.4981C40.2594 41.8654 42.1052 41.6725 43.3291 41.5611C43.4715 41.5482 43.4739 41.4769 43.6636 41.4549C44.1273 41.4021 45.3106 41.4937 45.2701 41.2638C45.6797 41.3303 46.0893 41.3968 46.4989 41.4634C46.8337 41.4215 47.1685 41.3797 47.5033 41.3379C47.5016 41.2661 47.4999 41.1944 47.4982 41.1226C48.1724 41.3672 49.2317 41.2732 49.7542 41.3317C49.8582 41.3436 49.8807 41.4426 50.2039 41.4696C50.5817 41.5016 51.2857 41.4723 51.7359 41.5033C51.9109 41.3936 52.0859 41.2839 52.261 41.1742C53.066 41.1147 53.349 41.4042 53.8217 41.4267C53.9069 41.4306 55.4597 41.4098 55.5434 41.4037C56.2284 41.3547 56.0343 41.108 58.0154 41.1609C58.3682 41.1704 58.6535 41.2558 58.9724 41.2592C59.5357 41.2654 61.233 41.0718 61.3665 40.893C62.0496 41.1168 63.8776 41.0253 64.416 41.09C64.5785 41.1099 64.6152 41.2525 65.1147 41.2828C65.5196 41.3076 66.5625 41.1934 67.076 41.2125C67.6211 41.2333 67.8158 41.3531 68.0601 41.3615C68.2908 41.3694 68.5036 41.2727 68.818 41.2733C69.7997 41.2767 70.6886 41.4323 71.4645 41.4352C71.4763 41.4352 71.4882 41.4352 71.5 41.4352L70.7925 42.1427C70.7909 41.0352 70.5093 40.0551 70.3836 39.1261C70.4021 38.8931 70.4636 38.6642 70.4641 38.4199C70.4732 35.3976 70.5259 31.9883 70.5872 28.957C70.6153 27.5498 71.0039 24.0503 70.3556 24.9844C70.242 24.4953 70.5034 20.9395 70.5074 20.2631C70.5113 19.5869 70.395 19.0509 70.3933 18.5194C70.3882 16.9155 70.472 15.786 70.3708 13.8337C70.3443 13.3295 70.2066 12.7892 70.2082 12.4906C70.2104 12.1309 70.3436 11.7438 70.3521 11.2779C70.3712 10.1672 70.3274 8.09727 70.3504 7.03168C70.3549 6.83713 70.4719 6.76879 70.5085 6.49053C70.6513 5.40694 70.6389 4.19234 70.2655 4.40725C70.4393 3.26865 70.3406 2.2 70.2929 1.1427L71.5 2.34979C71.2676 2.36028 71.0357 2.36831 70.8038 2.37045C68.0823 2.39463 63.1249 2.30747 60.754 2.46438C59.2591 2.56337 59.2974 2.73086 57.0964 2.58633C56.6078 2.55428 56.1214 2.51104 55.5289 2.4728C54.1399 2.38282 52.8656 2.07341 51.8069 2.44625C50.2642 2.34955 49.0356 2.41813 47.891 2.09927C47.7561 2.17575 47.6211 2.25222 47.4862 2.3287C47.2971 2.33059 47.1079 2.33248 46.9188 2.33438C46.8598 2.26144 46.8008 2.1885 46.7418 2.11556C45.3869 2.09592 43.6679 2.39571 42.521 2.39352C40.5981 2.39015 35.6454 2.27368 33.822 2.17526C32.854 2.12299 32.8019 2.27921 32.2477 1.95809C32.0312 1.98043 31.8147 2.00277 31.5982 2.02511C31.4627 2.09542 31.3272 2.16574 31.1917 2.23605C29.9497 2.23886 28.4767 2.12964 27.2936 2.13076C25.1376 2.13301 21.9003 2.32653 19.7353 2.19943C19.1924 2.16737 18.5139 2.02237 17.9823 2.02401C17.2086 2.02626 17.0205 2.26689 16.0387 2.27139C14.3466 2.2787 11.1952 1.99916 9.59579 2.02053C9.12074 2.02672 8.8991 2.11626 8.57108 2.12582C7.19563 2.16688 6.06638 2.15958 4.74749 2.29794C3.33134 2.06735 3.45368 1.76971 3.01481 1.46938C2.6822 1.24271 1.66233 0.717404 1.51755 0.518881C1.41585 0.379408 1.79556 0.199992 1.65305 0.0464681C3.34972 -0.0761349 4.06252 0.0588349 5.44023 0.274801C7.98449 0.266195 10.5288 0.257589 13.073 0.248983C13.3045 0.332785 13.536 0.416586 13.7674 0.500388C13.7674 0.500571 13.7674 0.500754 13.7674 0.500937C14.7445 0.597649 15.1586 0.381834 15.6856 0.332846C20.7304 -0.136209 30.6598 0.230906 36.2136 0.283773C37.4104 0.295017 41.3035 0.182095 42.1247 0.318197C42.3373 0.353643 42.3964 0.482862 42.6227 0.488486C44.6436 0.411642 46.6645 0.334799 48.6854 0.257955C52.8411 0.458736 57.1374 0.292917 61.3248 0.261984C64.7264 0.236823 68.1177 0.210035 71.5 0.185702L72.4439 0.172947L72.457 1.1427C72.5137 9.02542 72.5571 16.8587 72.5354 24.6566C72.5293 26.8103 72.6261 29.5433 72.5636 31.6517C72.5378 32.5317 72.3302 32.8983 72.4849 34.0543C72.429 34.0664 72.3731 34.0786 72.3172 34.0907C72.3847 35.0995 72.5119 35.7442 72.5248 36.8752C72.5355 37.8276 72.5438 40.3475 72.5224 41.1891C72.5118 41.6257 72.4073 41.463 72.4078 41.87C72.408 41.9509 72.4101 42.0425 72.4137 42.1427L72.4259 43.0439L71.5 43.0564C70.7373 43.0838 69.4756 43.1966 68.6258 43.1966C67.7548 43.1966 66.2865 43.0763 65.6169 43.0937C63.2053 43.1556 60.5785 43.334 58.0086 43.2862C57.2987 43.2726 56.3856 43.1372 56.1633 43.141C55.7291 43.1488 55.5997 43.2804 55.308 43.2973C53.8263 43.3828 51.5166 43.2265 50.0642 43.2203C45.3316 43.2 40.318 43.2574 35.6057 43.2333C32.6286 43.2181 27.6813 43.2412 24.9326 43.1423C24.3399 43.1209 24.4979 42.9767 24.0003 42.9767C23.4484 42.9768 23.1496 43.0741 22.8917 43.082C21.1066 43.1371 17.1661 43.2356 15.4808 43.136C15.1598 43.1169 14.9269 43.004 14.7347 43.0044C14.6374 43.0044 14.4176 43.0815 14.1123 43.0893C11.4157 43.1591 9.44951 43.1141 6.80721 43.0877C5.11138 43.0709 3.32537 43.0759 1.5 43.0869L0.568684 43.0995L0.555754 42.1427C0.533771 38.521 0.487667 34.7443 0.539266 31.2096C0.556139 30.0513 0.779554 29.257 0.777304 29.0941C0.772798 28.7367 0.622527 28.5079 0.585409 27.784C0.463403 25.3771 0.623755 22.1356 0.548422 19.8464C0.511306 18.7154 0.32055 17.1612 0.27834 16.0482C0.2446 15.1592 0.319427 13.0598 0.235677 12.6658C0.185078 12.4261 0.0225618 12.3152 0.0022167 12.0281ZM2.53201 41.9758C2.46563 41.9353 2.4303 42.0138 2.41682 42.1427L1.5 41.2259C1.87567 41.2652 2.67955 41.119 2.21467 41.0151C2.11405 40.9926 1.72706 41.0167 1.5 41.057L2.58574 42.1427C2.56975 42.0524 2.5512 41.9874 2.53201 41.9758ZM70.9192 34.3752C70.8449 34.3905 70.7707 34.4057 70.6965 34.421C70.7274 34.6395 70.7583 34.858 70.7892 35.0764C70.8338 34.9536 70.8784 34.8309 70.923 34.7081C70.9217 34.5971 70.9204 34.4862 70.9192 34.3752Z" fill="#F1F1F1"/>
</svg>
