<svg width="294" height="123" viewBox="0 0 294 123" fill="none" xmlns="http://www.w3.org/2000/svg">
<path d="M8.292 0.0203396C12.9095 -0.0317659 18.9622 0.0239475 23.5622 0.100417C25.0039 0.124135 24.2739 0.230151 25.2691 0.251296C27.2154 0.292517 29.0287 0.240522 30.9522 0.289626C31.5896 0.306418 30.7961 0.474348 31.4645 0.488112C35.1273 0.562327 38.5923 0.519553 42.3027 0.55525C60.5788 0.731371 78.5438 0.79441 97.0436 0.870923C103.143 0.896008 110.559 1.04841 116.859 0.981762C117.595 0.973831 117.156 0.826431 117.296 0.814282C119.491 0.628299 118.761 0.925869 120.194 0.965405C125.882 1.12151 132.207 1.13508 137.68 1.0782C140.009 1.05356 137.674 0.76079 140.019 0.925122C140.182 0.936225 139.591 1.09275 140.23 1.10945C141.678 1.147 144.426 1.11902 145.548 1.13142C147.711 1.15611 148.069 1.15454 150.115 1.15632C152.912 1.16012 156.239 1.23793 159.24 1.20246C159.881 1.19443 159.033 1.03397 160.054 1.00666C161.077 0.979403 163.782 0.993009 164.694 1.03083C165.606 1.06868 165.218 1.1948 165.379 1.2237C166.707 1.4677 169.836 1.12977 170.239 1.12141C177.579 0.979013 183.874 1.17152 190.765 1.17097C195.996 1.17015 201.589 1.10659 206.566 1.11531C212.496 1.12631 217.522 1.21326 223.282 1.19831C223.89 1.19692 223.178 1.00826 223.92 1.00618C231.809 0.984222 239.643 1.00479 247.498 1.13215C248.286 1.14509 247.271 1.31074 248.058 1.33357C252.877 1.4697 260.501 1.79671 263.363 1.07551C266.627 1.10367 270.589 1.13277 273.509 1.27815C275.392 1.37172 273.564 1.55217 275.876 1.47517C276.398 1.45801 275.72 1.29998 276.502 1.2862C279.795 1.22835 283.393 1.27972 286.652 1.19807C287.314 1.18109 287.133 1.03949 287.321 1.01399C288.899 0.807483 291.526 1.14885 292.099 1.17366C292.215 1.17856 292.329 1.18328 292.443 1.18783L293.252 1.18391L293.256 2C293.089 6.18603 293.157 9.309 293.153 13.2639C293.152 14.2066 293.342 13.0922 293.348 13.9994C293.375 18.7044 293.359 23.5782 293.274 28.1852C293.255 29.21 293.093 28.2676 293.076 28.7573C293.001 30.9165 293.307 31.3951 293.24 33.4659C293.227 33.9026 293.088 33.6566 293.073 33.7363C292.834 34.9826 293.173 36.0655 293.18 36.3861C293.282 40.4412 292.929 43.0333 292.979 46.9508C292.985 47.4194 293.161 46.3626 293.168 47.68C293.216 56.4567 293.168 65.739 293.028 74.4265C293.006 75.7772 292.874 74.813 292.858 74.898C292.604 76.2833 292.944 77.1797 292.957 77.6201C293.049 81.0947 292.764 84.3404 293.169 86.7012C293.056 98.5086 293.18 110.273 293.046 122L293.049 122.6L292.443 122.603C289.555 122.57 286.67 122.521 283.786 122.45C283.6 122.445 283.933 122.278 283.563 122.27C279.105 122.176 279.961 122.437 277.012 122.755C276.269 122.835 274.009 122.45 273.809 122.422C273.081 122.318 273.836 122.069 273.592 122.049C271.573 121.891 271.902 122.715 269.179 122.716C269.094 122.714 269.452 122.563 269.223 122.548C268.513 122.5 267.809 122.56 267.114 122.508C265.523 122.387 264.957 121.987 262.528 122.22C262.22 122.25 262.69 122.718 260.258 122.696C259.289 122.687 254.998 122.695 253.796 122.664C252.595 122.634 253.419 122.483 253.334 122.477C250.097 122.277 251.324 122.195 249.703 121.9C248.082 121.606 248.531 122.307 247.87 122.385C247.208 122.463 244.836 122.299 244.253 122.242C243.67 122.184 244.397 122.089 243.878 122.056C240.442 121.845 242.37 122.404 241.238 122.516C238.569 122.779 236.49 122.259 234.046 122.208C233.385 122.194 233.925 122.313 233.336 122.324C231.004 122.366 229.601 122.204 226.949 122.353C226.515 122.377 224.37 122.69 222.982 122.46C222.785 122.427 223.344 122.298 222.35 122.268C220.865 122.225 218.19 122.197 216.594 122.24C215.416 122.272 216.767 122.485 215.284 122.419C214.625 122.39 215.846 122.265 214.608 122.219C213.376 122.174 210.227 122.18 209.029 122.184C207.832 122.188 208.487 122.35 208.39 122.361C207.805 122.424 205.51 122.502 205.307 122.502C195.074 122.521 185.638 122.248 175.675 122.339C174.893 122.346 175.414 122.516 175.294 122.519C172.618 122.591 174.728 122.137 172.858 121.985C173.129 122.331 172.025 122.269 170.139 122.307C169.231 122.325 169.726 122.459 169.643 122.473C168.295 122.677 167.357 122.414 167.116 122.36C166.223 122.162 165.252 122.396 164.645 122.263C164.038 122.132 165.435 121.937 163.626 121.94C163.119 122.064 164.462 122.388 163.089 122.44C157.909 122.639 148.24 122.385 144.075 122.358C139.918 122.332 138.576 122.355 136.154 122.31C131.779 122.229 133.382 122.469 130.666 122.58C127.941 122.69 129.266 122.098 128.874 121.971C128.49 121.843 128.07 121.974 127.591 121.904C127.115 121.835 128.147 121.748 127.026 121.722C125.904 121.696 122.837 121.922 122.44 122.055C121.599 122.337 122.981 122.632 120.013 122.528C119.842 122.522 120.396 122.367 119.743 122.351C114.551 122.231 109.158 122.224 103.973 122.118C103.26 122.103 103.897 121.93 103.482 121.919C99.1604 121.809 100.705 122.101 98.3366 122.425C98.8685 121.993 97.5586 121.729 94.2786 121.727C92.3069 121.725 92.6463 121.914 91.371 122.046C90.9885 122.086 89.5932 121.957 89.3404 122.046C88.5068 122.335 89.8209 122.66 86.4392 122.53C86.2908 122.524 86.7632 122.366 86.2506 122.356C82.9367 122.293 82.5402 122.596 78.9581 122.633C76.1503 122.662 71.1566 122.477 67.9596 122.447C68.0269 121.962 65.0071 122.073 63.7821 122.407C61.7073 122.394 59.4663 122.413 57.4609 122.366C56.7708 122.351 57.2242 122.21 57.1372 122.195C55.8026 121.957 54.9006 122.282 54.4528 122.295C49.5989 122.419 45.6443 122.172 41.012 122.414C40.8476 122.422 40.5811 122.759 39.3429 122.513C39.2627 122.496 40.7927 122.343 38.6136 122.331C36.4341 122.319 32.3257 122.138 29.3 122.295C28.5678 122.332 26.7158 122.606 25.2293 122.392C25.0313 122.363 25.248 122.266 24.9621 122.213C24.0381 122.041 23.5336 122.382 22.4475 122.092C21.3615 121.803 19.1022 121.586 16.0509 121.786C15.9537 121.792 15.2313 122.062 14.2718 122.058C12.7398 122.051 10.5653 121.994 8.96581 121.996C8.20006 121.997 8.6901 122.165 8.55719 122.168C5.57015 122.222 3.08256 122.195 0.443359 122.149L0.294637 122.15L0.293908 122C0.326687 120.09 0.368833 118.1 0.396066 115.783C0.408287 114.772 0.179705 111.866 0.360422 109.909C0.55825 107.759 1.38119 109.968 1.18513 105.027C1.10671 103.034 0.0626653 100.511 0.603585 96.9298C0.469548 89.9841 0.746389 83.5608 0.555001 76.5957C0.546522 76.2825 0.255138 75.2921 0.259103 74.5557C0.265555 73.4625 0.401743 72.8625 0.410714 72.0819C0.451736 68.8111 0.335218 65.8181 0.353341 62.6645C0.359926 61.4673 0.500744 61.8859 0.508614 60.4579C0.516353 59.0308 0.330924 58.0792 0.42048 56.1453C0.488743 54.6847 0.867755 53.2244 0.911933 51.2857C0.538079 51.2118 0.54578 49.8803 0.447091 47.5138C0.427943 47.0589 0.297822 47.5467 0.282053 47.3314C0.214988 46.4557 0.32283 45.6452 0.249826 44.8136C0.232293 44.6114 0.104619 44.6018 0.0830786 44.4364C-0.104944 43.0302 0.182244 40.7135 0.232248 40.3156C0.422152 38.7906 0.256098 38.0779 0.330881 36.9082C0.405654 35.7404 0.499128 37.4865 0.544503 36.1224C0.638357 33.2948 0.617737 29.6616 0.623604 26.7899C0.625157 25.644 0.454732 26.4258 0.450997 26.2618C0.407773 23.8924 0.589056 21.4964 0.249582 20.1826C1.12733 18.5398 0.164445 18.7538 0.340158 15.3671C0.35437 15.1003 0.769453 14.7609 0.830391 15.7851C0.891271 16.8093 0.761523 18.3624 0.856514 19.7834C0.878806 20.1199 1.26777 22.0476 1.29133 22.3106C1.47547 24.3709 0.855182 24.6628 0.821113 24.7719C0.453451 26.0079 0.872481 28.3636 0.901435 28.9839C1.03411 31.8218 0.946873 34.2329 1.04157 36.6064C1.10278 38.1589 1.50909 38.3107 1.49665 39.5297C1.45554 43.582 0.888737 44.9965 1.38019 48.8151C1.48501 49.6339 1.9291 48.8202 1.5799 51.7541C1.55789 51.9384 1.23844 54.1167 1.4405 55.3752C1.46597 55.5333 1.59539 55.5282 1.60627 55.7367C1.67659 57.1337 1.57349 58.0654 1.62287 59.5872C1.67225 61.109 1.74587 62.9388 1.70197 64.6763C1.67572 65.7233 1.43459 67.0669 1.37555 67.5681C1.20549 68.9834 1.48432 70.501 1.27839 71.3778C1.07141 72.262 0.757091 70.5334 0.62336 72.852C0.959608 72.9379 1.30473 73.1352 1.64289 73.2732C1.63105 78.3545 1.52232 83.3541 1.53718 88.4523C1.53935 89.0844 1.72012 88.438 1.72712 89.1156C1.75583 91.9743 1.62697 94.4713 1.67829 97.4359C1.7187 99.7307 1.9101 102.247 1.95832 104.647C1.57355 106.112 1.70417 109.673 1.66901 112.26C1.65686 113.166 1.5541 113.105 1.52057 113.75C1.39658 116.181 1.7366 115.042 1.7901 115.708C2.01426 118.515 1.2769 118.802 1.26763 122L0.443359 121.176C0.503438 121.176 0.564429 121.176 0.626612 121.175C0.805146 121.175 2.98834 120.764 3.289 120.739C5.19956 120.572 3.60522 120.882 4.80094 120.912C6.98401 120.967 8.5011 121.065 11.0624 120.945C11.8094 120.91 13.6009 120.654 15.0513 120.852C15.2421 120.878 15.1366 121.013 15.2902 121.021C18.07 121.154 18.1432 120.727 19.7317 120.583C21.3206 120.439 23.7745 120.733 24.2738 120.818C25.5803 121.037 23.2727 120.912 23.2019 120.933C22.3708 121.189 24.1605 121.145 25.528 121.167C25.726 121.584 27.6383 121.559 26.9456 121.187C26.8668 121.147 25.8025 121.186 25.528 121.167C26.7284 120.757 28.83 120.704 31.1514 121.087C32.238 121.267 31.2107 121.476 34.5116 121.4C36.0096 121.365 35.4308 121.077 36.7527 120.999C39.773 120.82 43.6976 121.088 46.8114 121.046C47.9414 121.031 46.8406 120.873 47.6129 120.857C49.6625 120.815 51.4702 120.933 53.5286 120.872C53.7151 120.867 53.2594 120.702 53.8996 120.7C58.7523 120.68 62.9778 120.786 68.0445 120.789C70.4925 120.79 74.8692 120.699 77.4053 120.718C81.8005 120.748 87.2076 120.988 90.9624 120.93C93.4114 120.893 92.8741 120.728 93.9234 120.615C95.9482 120.398 99.5325 120.788 100.015 120.848C100.03 120.85 97.9226 120.889 99.047 120.974C99.7008 121.15 99.9914 120.849 100.015 120.848C100.332 120.887 104.542 120.925 105.378 120.893C105.832 120.876 105.578 120.72 105.815 120.714C111.444 120.574 117.082 120.534 122.792 120.607C122.892 120.61 122.741 120.785 122.977 120.79C126.282 120.868 128.399 120.654 131.125 120.527C133.85 120.4 136.012 120.443 137.625 120.743C139.681 120.705 142.632 120.838 144.33 120.918C146.027 120.999 146.264 120.659 146.414 120.652C151.073 120.437 153.766 120.631 158.6 120.662C160.898 120.677 165.457 120.627 167.945 120.59C169.912 120.56 171.097 120.64 172.909 120.589C173.154 120.582 172.906 120.431 172.981 120.425C175.003 120.244 174.031 120.614 174.449 120.68C175.963 120.92 176.898 121.048 179.488 120.935C180.085 120.909 181.825 120.376 182.914 120.345C184.33 120.306 183.795 120.497 185.278 120.45C185.404 120.447 185.378 120.329 186.293 120.334C190.54 120.356 195.17 120.425 199.583 120.413C200.186 120.412 199.413 120.225 200.284 120.22C204.371 120.198 208.85 120.205 212.832 120.293C213.812 120.315 213.198 120.446 213.41 120.485C214.716 120.72 216.569 120.378 216.874 120.372C224.164 120.207 229.744 120.517 237.174 120.369C237.578 120.361 240.692 119.994 242.08 120.309C242.176 120.329 243.55 120.651 244.765 120.431C244.84 120.417 243.984 120.252 245.478 120.269C246.973 120.286 249.378 120.175 251.432 120.357C252.082 120.414 253.619 120.735 255.559 120.479C255.685 120.461 258.68 119.883 259.749 120.282C259.922 120.348 259.741 120.77 262.056 120.553C262.499 120.511 261.696 120.417 262.861 120.359C264.647 120.268 267.012 120.381 269.207 120.193C269.59 120.16 271.22 119.873 272.527 120.091C272.731 120.125 272.342 120.266 273.033 120.281C276.315 120.357 279.752 120.263 283.085 120.36C284.266 120.395 283.662 120.622 284.892 120.683C286.123 120.744 288.603 120.803 289.89 120.699C291.178 120.595 289.771 120.232 291.701 120.203C291.948 120.199 292.196 120.196 292.443 120.193L290.636 122C290.532 113.864 290.734 105.797 290.764 97.6682C290.769 96.4259 290.639 97.4558 290.636 95.625C290.627 88.8753 290.505 77.2219 290.781 71.3649C291.002 66.6721 291.17 72.5777 291.26 68.9917C291.303 67.2613 290.881 65.3891 290.868 64.9714C290.733 60.8906 290.92 58.0545 290.862 54.3816C290.851 53.6231 290.68 54.367 290.671 53.7215C290.642 51.5166 290.718 49.1992 290.704 47.0922C290.697 46.147 290.567 46.3211 290.577 45.4514C290.599 43.3703 290.654 41.5299 290.777 39.5011C290.788 39.3162 290.95 40.5631 290.956 39.0233C290.966 36.5313 291.087 33.4381 290.962 30.571C290.924 29.7202 290.626 29.6869 290.832 27.8583C290.875 27.4747 291.233 27.9641 290.924 25.834C290.872 25.4757 290.455 21.8975 290.724 20.1414C290.795 19.6782 291.088 18.4958 291.042 17.4728C291.035 17.334 290.874 17.8898 290.859 17.0421C290.806 14.0545 290.823 10.9235 290.773 7.8542C290.759 7.03458 290.593 8.25534 290.578 7.0338C290.559 5.47726 290.558 3.7415 290.567 2L292.443 3.87654C290.426 3.86576 288.402 3.84068 286.639 3.81281C285.428 3.79334 286.265 3.65589 286.177 3.64093C284.76 3.39763 283.922 3.72603 283.452 3.74518C280.527 3.85984 278.299 3.70558 275.603 3.7464C274.859 3.75725 275.386 3.91384 275.238 3.9278C273.702 4.06422 274.846 3.78301 273.874 3.75202C271.15 3.66425 268.113 3.67683 265.359 3.69684C264.347 3.70442 265.484 3.88598 264.576 3.89069C259.202 3.92198 253.614 3.9046 248.369 3.80451C247.382 3.78533 248.003 3.64552 247.797 3.61359C246.378 3.39018 244.299 3.69491 243.821 3.72394C241.645 3.85648 240.801 3.73285 238.879 3.75592C229.495 3.87082 217.908 3.78893 209.049 3.73835C197.506 3.67324 188.549 3.54023 177.541 3.57477C176.841 3.57679 177.547 3.76278 176.944 3.76691C169.157 3.81175 161.491 3.73907 153.689 3.79279C153.049 3.79687 153.972 3.97319 152.944 3.98566C150.836 4.01248 148.166 4.0029 146.035 3.9466C144.996 3.91947 146.39 3.76817 145.344 3.74396C142.907 3.68724 140.296 3.67468 137.794 3.70295C136.729 3.71536 138.335 3.89569 136.951 3.89777C127.522 3.91566 118.262 3.94672 108.734 3.7132C108.08 3.69716 107.507 3.33066 106.118 3.40094C106.014 3.50266 106.019 3.6223 105.974 3.73102C92.2476 3.78958 78.6615 3.66253 64.8969 3.64289C64.3165 3.6421 65.3195 3.83629 64.1959 3.83576C57.6929 3.83289 51.378 3.88668 44.7262 3.69367C44.0662 3.67479 44.4048 3.33316 42.4599 3.38483C42.1168 3.39426 39.1875 3.43982 38.4301 3.51398C38.3273 3.52517 38.8617 3.68463 37.9178 3.68927C32.4323 3.71349 26.6839 3.67708 21.2079 3.57965C20.3241 3.56363 21.2653 3.39381 20.6358 3.38092C16.1707 3.29078 11.3139 3.41987 7.04725 3.26569C4.19131 3.16188 5.24866 2.86835 3.73105 2.57941C3.5164 2.53865 1.74792 2.53219 1.65646 2.36408C1.42167 1.94136 2.27827 1.47848 1.92679 1.0279C1.85253 0.930854 -0.51593 1.03538 0.886349 0.800855C0.984313 0.785159 2.70146 0.70732 3.12439 0.62776C3.41885 0.572753 2.88822 0.401788 3.48902 0.331374C4.08976 0.261026 4.74989 0.404338 5.74592 0.321608C6.74149 0.237855 6.30373 0.0433627 8.292 0.0203396ZM151.974 121.278C153.546 121.441 153.778 120.843 152.078 120.986C151.996 120.994 151.893 121.27 151.974 121.278ZM1.07111 83.3256C0.807269 85.3808 1.19522 86.7871 1.39899 85.3373C1.60254 83.8876 1.15109 82.6994 1.07111 83.3256ZM0.878486 62.0139C0.670458 64.4159 1.51871 64.794 1.34723 62.2213C1.33754 62.0717 0.890565 61.8735 0.878486 62.0139ZM10.7689 2.49714C10.7472 2.48919 9.47598 2.48145 9.4456 2.48933C8.76868 2.67931 11.3107 2.69466 10.7689 2.49714ZM0.66877 40.8656C0.554025 41.6155 0.686485 43.7745 0.82917 42.8428C0.943957 42.0928 0.811506 39.9318 0.66877 40.8656ZM233.98 121.916C234.005 121.925 234.916 121.933 234.898 121.883C234.836 121.72 233.568 121.766 233.98 121.916ZM0.659005 4.92181C0.627075 10.2323 -0.0736252 13.4522 0.00544217 7.66907C0.0197477 6.6218 0.22889 9.92619 0.292062 8.59321C0.407152 6.15419 -0.0328024 4.53464 0.202951 2.04568C0.246102 1.5951 0.662383 4.61888 0.659981 4.93125C0.659656 4.9281 0.65933 4.92496 0.659005 4.92181ZM152.879 121.996C152.911 122.004 154.173 122.012 154.203 122.004C154.886 121.814 152.344 121.799 152.879 121.996ZM287.162 122.286C287.232 122.303 290.159 122.319 290.255 122.303C291.782 121.993 285.863 121.96 287.162 122.286ZM67.9093 122.434C66.5326 122.625 64.8858 122.648 63.7884 122.408C65.1565 122.42 66.5337 122.422 67.9093 122.434Z" fill="#2D2D2D"/>
</svg>
