<svg width="77" height="73" viewBox="0 0 77 73" fill="none" xmlns="http://www.w3.org/2000/svg">
<path d="M15 1L1 36L13 72H58.5L76.5 36L62.5 3.5L15 1Z" fill="url(#paint0_linear_525_8353)"/>
<path d="M15 1L22 14L9.5 36H1L15 1Z" fill="#8A8A8A" fill-opacity="0.7"/>
<path d="M62.5 3.5L53.9999 13.5L64.4999 38L76.5 36L62.5 3.5Z" fill="#EAD4B3" fill-opacity="0.7"/>
<path d="M23 58L13 72H58.5L48.5 61L23 58Z" fill="#8A8A8A" fill-opacity="0.7"/>
<path d="M53.9999 13.5H21.4993L9.6087 35.8333L23 58L48.5 61L64.3913 38L53.9999 13.5Z" fill="#EAD4B3" fill-opacity="0.7"/>
<path d="M1 36L15 1M1 36L13 72M1 36H9.5L22 14L15 1M15 1L62.5 3.5M62.5 3.5L76.5 36M62.5 3.5L53.9999 13.5M76.5 36L58.5 72M76.5 36L64.4999 38L53.9999 13.5M58.5 72H13M58.5 72L48.5 61M13 72L23 58M53.9999 13.5H21.4993L9.6087 35.8333L23 58M53.9999 13.5L64.3913 38L48.5 61M23 58L48.5 61" stroke="url(#paint1_linear_525_8353)" stroke-width="0.5"/>
<defs>
<linearGradient id="paint0_linear_525_8353" x1="37.519" y1="-2.52066" x2="42.5336" y2="71.7028" gradientUnits="userSpaceOnUse">
<stop stop-color="#EED0A7"/>
<stop offset="1" stop-color="#737373"/>
</linearGradient>
<linearGradient id="paint1_linear_525_8353" x1="35.342" y1="0.1125" x2="35.342" y2="74.6625" gradientUnits="userSpaceOnUse">
<stop stop-color="#EBEADA"/>
<stop offset="1" stop-color="#797875"/>
</linearGradient>
</defs>
</svg>
