<svg width="360" height="800" viewBox="0 0 360 800" fill="none" xmlns="http://www.w3.org/2000/svg">
  <path
    fill-rule="evenodd"
    clip-rule="evenodd"
    d="M360 0V800H0V0H360ZM176.997 11C141.74 11 52.2506 15.1 25.915 16.3438C21.7254 16.5418 18.4506 19.6509 18.3652 23.4688L17.5635 59.3662C11.4918 59.9159 6.75008 64.5796 6.75 70.251C6.75001 75.7703 11.241 80.3335 17.0781 81.0811L10.7559 364.228L18.3682 703.979C18.4528 707.742 21.6268 710.824 25.752 711.082C49.219 712.549 124.722 717 176.997 717C229.63 717 311.299 712.487 335.951 711.052C340.088 710.811 343.309 707.729 343.401 703.956L350.108 431.02C349.175 431.155 348.218 431.228 347.243 431.228C337.288 431.227 329.218 423.881 329.218 414.819C329.218 405.758 337.288 398.411 347.243 398.411C348.496 398.411 349.72 398.527 350.901 398.749L351.75 364.228L343.404 23.4775C343.31 19.656 340.049 16.5525 335.854 16.3662C308.47 15.1497 212.465 11 176.997 11Z"
    fill="#DDD2CE"
  />
</svg>
